G04 #@! TF.GenerationSoftware,KiCad,Pcbnew,(5.1.5)-3*
G04 #@! TF.CreationDate,2020-02-21T15:06:44+08:00*
G04 #@! TF.ProjectId,Test,54657374-2e6b-4696-9361-645f70636258,rev?*
G04 #@! TF.SameCoordinates,Original*
G04 #@! TF.FileFunction,Legend,Top*
G04 #@! TF.FilePolarity,Positive*
%FSLAX46Y46*%
G04 Gerber Fmt 4.6, Leading zero omitted, Abs format (unit mm)*
G04 Created by KiCad (PCBNEW (5.1.5)-3) date 2020-02-21 15:06:44*
%MOMM*%
%LPD*%
G04 APERTURE LIST*
%ADD10C,0.120000*%
%ADD11C,0.150000*%
G04 APERTURE END LIST*
D10*
X153762000Y-103211000D02*
X155762000Y-103211000D01*
X153762000Y-100971000D02*
X153762000Y-103211000D01*
X196212000Y-99000000D02*
X196212000Y-99061000D01*
X196212000Y-95311000D02*
X196212000Y-97622000D01*
X193412000Y-99000000D02*
X193412000Y-99061000D01*
X193412000Y-95311000D02*
X193412000Y-97622000D01*
X196212000Y-99061000D02*
X196212000Y-99061000D01*
X193412000Y-99061000D02*
X193413000Y-99061000D01*
X193412000Y-95311000D02*
X196212000Y-95311000D01*
X192712000Y-99000000D02*
X192712000Y-99061000D01*
X192712000Y-95311000D02*
X192712000Y-97622000D01*
X189912000Y-99000000D02*
X189912000Y-99061000D01*
X189912000Y-95311000D02*
X189912000Y-97622000D01*
X192712000Y-99061000D02*
X192712000Y-99061000D01*
X189912000Y-99061000D02*
X189913000Y-99061000D01*
X189912000Y-95311000D02*
X192712000Y-95311000D01*
X189212000Y-99000000D02*
X189212000Y-99061000D01*
X189212000Y-95311000D02*
X189212000Y-97622000D01*
X186412000Y-99000000D02*
X186412000Y-99061000D01*
X186412000Y-95311000D02*
X186412000Y-97622000D01*
X189212000Y-99061000D02*
X189212000Y-99061000D01*
X186412000Y-99061000D02*
X186413000Y-99061000D01*
X186412000Y-95311000D02*
X189212000Y-95311000D01*
X185712000Y-99000000D02*
X185712000Y-99061000D01*
X185712000Y-95311000D02*
X185712000Y-97622000D01*
X182912000Y-99000000D02*
X182912000Y-99061000D01*
X182912000Y-95311000D02*
X182912000Y-97622000D01*
X185712000Y-99061000D02*
X185712000Y-99061000D01*
X182912000Y-99061000D02*
X182913000Y-99061000D01*
X182912000Y-95311000D02*
X185712000Y-95311000D01*
X182212000Y-99000000D02*
X182212000Y-99061000D01*
X182212000Y-95311000D02*
X182212000Y-97622000D01*
X179412000Y-99000000D02*
X179412000Y-99061000D01*
X179412000Y-95311000D02*
X179412000Y-97622000D01*
X182212000Y-99061000D02*
X182212000Y-99061000D01*
X179412000Y-99061000D02*
X179413000Y-99061000D01*
X179412000Y-95311000D02*
X182212000Y-95311000D01*
X178712000Y-99000000D02*
X178712000Y-99061000D01*
X178712000Y-95311000D02*
X178712000Y-97622000D01*
X175912000Y-99000000D02*
X175912000Y-99061000D01*
X175912000Y-95311000D02*
X175912000Y-97622000D01*
X178712000Y-99061000D02*
X178712000Y-99061000D01*
X175912000Y-99061000D02*
X175913000Y-99061000D01*
X175912000Y-95311000D02*
X178712000Y-95311000D01*
X175212000Y-99000000D02*
X175212000Y-99061000D01*
X175212000Y-95311000D02*
X175212000Y-97622000D01*
X172413000Y-99000000D02*
X172413000Y-99061000D01*
X172413000Y-95311000D02*
X172413000Y-97622000D01*
X175212000Y-99061000D02*
X175212000Y-99061000D01*
X172413000Y-99061000D02*
X172413000Y-99061000D01*
X172413000Y-95311000D02*
X175212000Y-95311000D01*
X171712000Y-99000000D02*
X171712000Y-99061000D01*
X171712000Y-95311000D02*
X171712000Y-97622000D01*
X168912000Y-99000000D02*
X168912000Y-99061000D01*
X168912000Y-95311000D02*
X168912000Y-97622000D01*
X171712000Y-99061000D02*
X171712000Y-99061000D01*
X168912000Y-99061000D02*
X168913000Y-99061000D01*
X168912000Y-95311000D02*
X171712000Y-95311000D01*
X168212000Y-99000000D02*
X168212000Y-99061000D01*
X168212000Y-95311000D02*
X168212000Y-97622000D01*
X165412000Y-99000000D02*
X165412000Y-99061000D01*
X165412000Y-95311000D02*
X165412000Y-97622000D01*
X168212000Y-99061000D02*
X168212000Y-99061000D01*
X165412000Y-99061000D02*
X165413000Y-99061000D01*
X165412000Y-95311000D02*
X168212000Y-95311000D01*
X164712000Y-99000000D02*
X164712000Y-99061000D01*
X164712000Y-95311000D02*
X164712000Y-97622000D01*
X161912000Y-99000000D02*
X161912000Y-99061000D01*
X161912000Y-95311000D02*
X161912000Y-97622000D01*
X164712000Y-99061000D02*
X164712000Y-99061000D01*
X161912000Y-99061000D02*
X161913000Y-99061000D01*
X161912000Y-95311000D02*
X164712000Y-95311000D01*
X161212000Y-99000000D02*
X161212000Y-99061000D01*
X161212000Y-95311000D02*
X161212000Y-97622000D01*
X158412000Y-99000000D02*
X158412000Y-99061000D01*
X158412000Y-95311000D02*
X158412000Y-97622000D01*
X161212000Y-99061000D02*
X161212000Y-99061000D01*
X158412000Y-99061000D02*
X158413000Y-99061000D01*
X158412000Y-95311000D02*
X161212000Y-95311000D01*
X157712000Y-95311000D02*
X157712000Y-96771000D01*
X154912000Y-95311000D02*
X154912000Y-96771000D01*
X154912000Y-95311000D02*
X157712000Y-95311000D01*
X197122000Y-94551000D02*
X197122000Y-102971000D01*
X154002000Y-94551000D02*
X154002000Y-102971000D01*
X154002000Y-102971000D02*
X197122000Y-102971000D01*
X154002000Y-94551000D02*
X197122000Y-94551000D01*
X195946000Y-99412000D02*
X197122000Y-99412000D01*
X192446000Y-99412000D02*
X193679000Y-99412000D01*
X188946000Y-99412000D02*
X190179000Y-99412000D01*
X185446000Y-99412000D02*
X186679000Y-99412000D01*
X181946000Y-99412000D02*
X183179000Y-99412000D01*
X178446000Y-99412000D02*
X179679000Y-99412000D01*
X174946000Y-99412000D02*
X176179000Y-99412000D01*
X171446000Y-99412000D02*
X172679000Y-99412000D01*
X167946000Y-99412000D02*
X169179000Y-99412000D01*
X164446000Y-99412000D02*
X165679000Y-99412000D01*
X160946000Y-99412000D02*
X162179000Y-99412000D01*
X157852000Y-99412000D02*
X158679000Y-99412000D01*
X154002000Y-99412000D02*
X154772000Y-99412000D01*
X193872085Y-97053233D02*
G75*
G02X195752000Y-97053000I939915J342233D01*
G01*
X190372085Y-97053233D02*
G75*
G02X192252000Y-97053000I939915J342233D01*
G01*
X186872085Y-97053233D02*
G75*
G02X188752000Y-97053000I939915J342233D01*
G01*
X183372085Y-97053233D02*
G75*
G02X185252000Y-97053000I939915J342233D01*
G01*
X179872085Y-97053233D02*
G75*
G02X181752000Y-97053000I939915J342233D01*
G01*
X176372085Y-97053233D02*
G75*
G02X178252000Y-97053000I939915J342233D01*
G01*
X172872085Y-97053233D02*
G75*
G02X174752000Y-97053000I939915J342233D01*
G01*
X169372085Y-97053233D02*
G75*
G02X171252000Y-97053000I939915J342233D01*
G01*
X165872085Y-97053233D02*
G75*
G02X167752000Y-97053000I939915J342233D01*
G01*
X162372085Y-97053233D02*
G75*
G02X164252000Y-97053000I939915J342233D01*
G01*
X158872085Y-97053233D02*
G75*
G02X160752000Y-97053000I939915J342233D01*
G01*
X155314110Y-96781566D02*
G75*
G02X157310000Y-96780000I997890J70566D01*
G01*
X253905000Y-139816000D02*
X264205000Y-139816000D01*
X253905000Y-121576000D02*
X253905000Y-139816000D01*
X264205000Y-121576000D02*
X253905000Y-121576000D01*
X253905000Y-121576000D02*
X253905000Y-139816000D01*
X264205000Y-139816000D02*
X264205000Y-121576000D01*
X256515000Y-135776000D02*
X256515000Y-134506000D01*
X261595000Y-135776000D02*
X256515000Y-135776000D01*
X261595000Y-133236000D02*
X261595000Y-135776000D01*
X256515000Y-133236000D02*
X261595000Y-133236000D01*
X256515000Y-134506000D02*
X256515000Y-133236000D01*
X255245000Y-134506000D02*
X256515000Y-134506000D01*
X255245000Y-135776000D02*
X255245000Y-134506000D01*
X262865000Y-134506000D02*
X262865000Y-135776000D01*
X261595000Y-134506000D02*
X262865000Y-134506000D01*
X257785000Y-135776000D02*
X259055000Y-133236000D01*
X163631500Y-124850500D02*
X165281500Y-124850500D01*
X163631500Y-104410500D02*
X163631500Y-124850500D01*
X168931500Y-104410500D02*
X163631500Y-104410500D01*
X168931500Y-124850500D02*
X168931500Y-104410500D01*
X167281500Y-124850500D02*
X168931500Y-124850500D01*
X165281500Y-124850500D02*
G75*
G02X167281500Y-124850500I1000000J0D01*
G01*
X194539000Y-126148000D02*
X194539000Y-126838000D01*
X194539000Y-136768000D02*
X194539000Y-136078000D01*
X192819000Y-126838000D02*
X192819000Y-136078000D01*
X196259000Y-126838000D02*
X192819000Y-126838000D01*
X196259000Y-136078000D02*
X196259000Y-126838000D01*
X192819000Y-136078000D02*
X196259000Y-136078000D01*
X190729000Y-126148000D02*
X190729000Y-126838000D01*
X190729000Y-136768000D02*
X190729000Y-136078000D01*
X189009000Y-126838000D02*
X189009000Y-136078000D01*
X192449000Y-126838000D02*
X189009000Y-126838000D01*
X192449000Y-136078000D02*
X192449000Y-126838000D01*
X189009000Y-136078000D02*
X192449000Y-136078000D01*
X185211000Y-104558000D02*
X174911000Y-104558000D01*
X185211000Y-122798000D02*
X185211000Y-104558000D01*
X174911000Y-122798000D02*
X185211000Y-122798000D01*
X185211000Y-122798000D02*
X185211000Y-104558000D01*
X174911000Y-104558000D02*
X174911000Y-122798000D01*
X182601000Y-108598000D02*
X182601000Y-109868000D01*
X177521000Y-108598000D02*
X182601000Y-108598000D01*
X177521000Y-111138000D02*
X177521000Y-108598000D01*
X182601000Y-111138000D02*
X177521000Y-111138000D01*
X182601000Y-109868000D02*
X182601000Y-111138000D01*
X183871000Y-109868000D02*
X182601000Y-109868000D01*
X183871000Y-108598000D02*
X183871000Y-109868000D01*
X176251000Y-109868000D02*
X176251000Y-108598000D01*
X177521000Y-109868000D02*
X176251000Y-109868000D01*
X181331000Y-108598000D02*
X180061000Y-111138000D01*
X208452000Y-121449000D02*
X198152000Y-121449000D01*
X208452000Y-139689000D02*
X208452000Y-121449000D01*
X198152000Y-139689000D02*
X208452000Y-139689000D01*
X208452000Y-139689000D02*
X208452000Y-121449000D01*
X198152000Y-121449000D02*
X198152000Y-139689000D01*
X205842000Y-125489000D02*
X205842000Y-126759000D01*
X200762000Y-125489000D02*
X205842000Y-125489000D01*
X200762000Y-128029000D02*
X200762000Y-125489000D01*
X205842000Y-128029000D02*
X200762000Y-128029000D01*
X205842000Y-126759000D02*
X205842000Y-128029000D01*
X207112000Y-126759000D02*
X205842000Y-126759000D01*
X207112000Y-125489000D02*
X207112000Y-126759000D01*
X199492000Y-126759000D02*
X199492000Y-125489000D01*
X200762000Y-126759000D02*
X199492000Y-126759000D01*
X204572000Y-125489000D02*
X203302000Y-128029000D01*
X230931000Y-121576000D02*
X220631000Y-121576000D01*
X230931000Y-139816000D02*
X230931000Y-121576000D01*
X220631000Y-139816000D02*
X230931000Y-139816000D01*
X230931000Y-139816000D02*
X230931000Y-121576000D01*
X220631000Y-121576000D02*
X220631000Y-139816000D01*
X228321000Y-125616000D02*
X228321000Y-126886000D01*
X223241000Y-125616000D02*
X228321000Y-125616000D01*
X223241000Y-128156000D02*
X223241000Y-125616000D01*
X228321000Y-128156000D02*
X223241000Y-128156000D01*
X228321000Y-126886000D02*
X228321000Y-128156000D01*
X229591000Y-126886000D02*
X228321000Y-126886000D01*
X229591000Y-125616000D02*
X229591000Y-126886000D01*
X221971000Y-126886000D02*
X221971000Y-125616000D01*
X223241000Y-126886000D02*
X221971000Y-126886000D01*
X227051000Y-125616000D02*
X225781000Y-128156000D01*
X219755000Y-121449000D02*
X209455000Y-121449000D01*
X219755000Y-139689000D02*
X219755000Y-121449000D01*
X209455000Y-139689000D02*
X219755000Y-139689000D01*
X219755000Y-139689000D02*
X219755000Y-121449000D01*
X209455000Y-121449000D02*
X209455000Y-139689000D01*
X217145000Y-125489000D02*
X217145000Y-126759000D01*
X212065000Y-125489000D02*
X217145000Y-125489000D01*
X212065000Y-128029000D02*
X212065000Y-125489000D01*
X217145000Y-128029000D02*
X212065000Y-128029000D01*
X217145000Y-126759000D02*
X217145000Y-128029000D01*
X218415000Y-126759000D02*
X217145000Y-126759000D01*
X218415000Y-125489000D02*
X218415000Y-126759000D01*
X210795000Y-126759000D02*
X210795000Y-125489000D01*
X212065000Y-126759000D02*
X210795000Y-126759000D01*
X215875000Y-125489000D02*
X214605000Y-128029000D01*
X224060000Y-120893000D02*
X234360000Y-120893000D01*
X224060000Y-102653000D02*
X224060000Y-120893000D01*
X234360000Y-102653000D02*
X224060000Y-102653000D01*
X224060000Y-102653000D02*
X224060000Y-120893000D01*
X234360000Y-120893000D02*
X234360000Y-102653000D01*
X226670000Y-116853000D02*
X226670000Y-115583000D01*
X231750000Y-116853000D02*
X226670000Y-116853000D01*
X231750000Y-114313000D02*
X231750000Y-116853000D01*
X226670000Y-114313000D02*
X231750000Y-114313000D01*
X226670000Y-115583000D02*
X226670000Y-114313000D01*
X225400000Y-115583000D02*
X226670000Y-115583000D01*
X225400000Y-116853000D02*
X225400000Y-115583000D01*
X233020000Y-115583000D02*
X233020000Y-116853000D01*
X231750000Y-115583000D02*
X233020000Y-115583000D01*
X227940000Y-116853000D02*
X229210000Y-114313000D01*
X246793000Y-120512000D02*
X257093000Y-120512000D01*
X246793000Y-102272000D02*
X246793000Y-120512000D01*
X257093000Y-102272000D02*
X246793000Y-102272000D01*
X246793000Y-102272000D02*
X246793000Y-120512000D01*
X257093000Y-120512000D02*
X257093000Y-102272000D01*
X249403000Y-116472000D02*
X249403000Y-115202000D01*
X254483000Y-116472000D02*
X249403000Y-116472000D01*
X254483000Y-113932000D02*
X254483000Y-116472000D01*
X249403000Y-113932000D02*
X254483000Y-113932000D01*
X249403000Y-115202000D02*
X249403000Y-113932000D01*
X248133000Y-115202000D02*
X249403000Y-115202000D01*
X248133000Y-116472000D02*
X248133000Y-115202000D01*
X255753000Y-115202000D02*
X255753000Y-116472000D01*
X254483000Y-115202000D02*
X255753000Y-115202000D01*
X250673000Y-116472000D02*
X251943000Y-113932000D01*
X197149000Y-104558000D02*
X186849000Y-104558000D01*
X197149000Y-122798000D02*
X197149000Y-104558000D01*
X186849000Y-122798000D02*
X197149000Y-122798000D01*
X197149000Y-122798000D02*
X197149000Y-104558000D01*
X186849000Y-104558000D02*
X186849000Y-122798000D01*
X194539000Y-108598000D02*
X194539000Y-109868000D01*
X189459000Y-108598000D02*
X194539000Y-108598000D01*
X189459000Y-111138000D02*
X189459000Y-108598000D01*
X194539000Y-111138000D02*
X189459000Y-111138000D01*
X194539000Y-109868000D02*
X194539000Y-111138000D01*
X195809000Y-109868000D02*
X194539000Y-109868000D01*
X195809000Y-108598000D02*
X195809000Y-109868000D01*
X188189000Y-109868000D02*
X188189000Y-108598000D01*
X189459000Y-109868000D02*
X188189000Y-109868000D01*
X193269000Y-108598000D02*
X191999000Y-111138000D01*
X242143000Y-121517000D02*
X231843000Y-121517000D01*
X242143000Y-139757000D02*
X242143000Y-121517000D01*
X231843000Y-139757000D02*
X242143000Y-139757000D01*
X242143000Y-139757000D02*
X242143000Y-121517000D01*
X231843000Y-121517000D02*
X231843000Y-139757000D01*
X239533000Y-125557000D02*
X239533000Y-126827000D01*
X234453000Y-125557000D02*
X239533000Y-125557000D01*
X234453000Y-128097000D02*
X234453000Y-125557000D01*
X239533000Y-128097000D02*
X234453000Y-128097000D01*
X239533000Y-126827000D02*
X239533000Y-128097000D01*
X240803000Y-126827000D02*
X239533000Y-126827000D01*
X240803000Y-125557000D02*
X240803000Y-126827000D01*
X233183000Y-126827000D02*
X233183000Y-125557000D01*
X234453000Y-126827000D02*
X233183000Y-126827000D01*
X238263000Y-125557000D02*
X236993000Y-128097000D01*
X253283000Y-121576000D02*
X242983000Y-121576000D01*
X253283000Y-139816000D02*
X253283000Y-121576000D01*
X242983000Y-139816000D02*
X253283000Y-139816000D01*
X253283000Y-139816000D02*
X253283000Y-121576000D01*
X242983000Y-121576000D02*
X242983000Y-139816000D01*
X250673000Y-125616000D02*
X250673000Y-126886000D01*
X245593000Y-125616000D02*
X250673000Y-125616000D01*
X245593000Y-128156000D02*
X245593000Y-125616000D01*
X250673000Y-128156000D02*
X245593000Y-128156000D01*
X250673000Y-126886000D02*
X250673000Y-128156000D01*
X251943000Y-126886000D02*
X250673000Y-126886000D01*
X251943000Y-125616000D02*
X251943000Y-126886000D01*
X244323000Y-126886000D02*
X244323000Y-125616000D01*
X245593000Y-126886000D02*
X244323000Y-126886000D01*
X249403000Y-125616000D02*
X248133000Y-128156000D01*
X223438000Y-102653000D02*
X213138000Y-102653000D01*
X223438000Y-120893000D02*
X223438000Y-102653000D01*
X213138000Y-120893000D02*
X223438000Y-120893000D01*
X223438000Y-120893000D02*
X223438000Y-102653000D01*
X213138000Y-102653000D02*
X213138000Y-120893000D01*
X220828000Y-106693000D02*
X220828000Y-107963000D01*
X215748000Y-106693000D02*
X220828000Y-106693000D01*
X215748000Y-109233000D02*
X215748000Y-106693000D01*
X220828000Y-109233000D02*
X215748000Y-109233000D01*
X220828000Y-107963000D02*
X220828000Y-109233000D01*
X222098000Y-107963000D02*
X220828000Y-107963000D01*
X222098000Y-106693000D02*
X222098000Y-107963000D01*
X214478000Y-107963000D02*
X214478000Y-106693000D01*
X215748000Y-107963000D02*
X214478000Y-107963000D01*
X219558000Y-106693000D02*
X218288000Y-109233000D01*
X245663000Y-102653000D02*
X235363000Y-102653000D01*
X245663000Y-120893000D02*
X245663000Y-102653000D01*
X235363000Y-120893000D02*
X245663000Y-120893000D01*
X245663000Y-120893000D02*
X245663000Y-102653000D01*
X235363000Y-102653000D02*
X235363000Y-120893000D01*
X243053000Y-106693000D02*
X243053000Y-107963000D01*
X237973000Y-106693000D02*
X243053000Y-106693000D01*
X237973000Y-109233000D02*
X237973000Y-106693000D01*
X243053000Y-109233000D02*
X237973000Y-109233000D01*
X243053000Y-107963000D02*
X243053000Y-109233000D01*
X244323000Y-107963000D02*
X243053000Y-107963000D01*
X244323000Y-106693000D02*
X244323000Y-107963000D01*
X236703000Y-107963000D02*
X236703000Y-106693000D01*
X237973000Y-107963000D02*
X236703000Y-107963000D01*
X241783000Y-106693000D02*
X240513000Y-109233000D01*
X212262000Y-102653000D02*
X201962000Y-102653000D01*
X212262000Y-120893000D02*
X212262000Y-102653000D01*
X201962000Y-120893000D02*
X212262000Y-120893000D01*
X212262000Y-120893000D02*
X212262000Y-102653000D01*
X201962000Y-102653000D02*
X201962000Y-120893000D01*
X209652000Y-106693000D02*
X209652000Y-107963000D01*
X204572000Y-106693000D02*
X209652000Y-106693000D01*
X204572000Y-109233000D02*
X204572000Y-106693000D01*
X209652000Y-109233000D02*
X204572000Y-109233000D01*
X209652000Y-107963000D02*
X209652000Y-109233000D01*
X210922000Y-107963000D02*
X209652000Y-107963000D01*
X210922000Y-106693000D02*
X210922000Y-107963000D01*
X203302000Y-107963000D02*
X203302000Y-106693000D01*
X204572000Y-107963000D02*
X203302000Y-107963000D01*
X208382000Y-106693000D02*
X207112000Y-109233000D01*
X178767000Y-137751000D02*
X178767000Y-127451000D01*
X160527000Y-137751000D02*
X178767000Y-137751000D01*
X160527000Y-127451000D02*
X160527000Y-137751000D01*
X160527000Y-137751000D02*
X178767000Y-137751000D01*
X178767000Y-127451000D02*
X160527000Y-127451000D01*
X174727000Y-135141000D02*
X173457000Y-135141000D01*
X174727000Y-130061000D02*
X174727000Y-135141000D01*
X172187000Y-130061000D02*
X174727000Y-130061000D01*
X172187000Y-135141000D02*
X172187000Y-130061000D01*
X173457000Y-135141000D02*
X172187000Y-135141000D01*
X173457000Y-136411000D02*
X173457000Y-135141000D01*
X174727000Y-136411000D02*
X173457000Y-136411000D01*
X173457000Y-128791000D02*
X174727000Y-128791000D01*
X173457000Y-130061000D02*
X173457000Y-128791000D01*
X174727000Y-133871000D02*
X172187000Y-132601000D01*
X198643000Y-140655000D02*
X196643000Y-140655000D01*
X198643000Y-142895000D02*
X198643000Y-140655000D01*
X156193000Y-144866000D02*
X156193000Y-144805000D01*
X156193000Y-148555000D02*
X156193000Y-146244000D01*
X158993000Y-144866000D02*
X158993000Y-144805000D01*
X158993000Y-148555000D02*
X158993000Y-146244000D01*
X156193000Y-144805000D02*
X156193000Y-144805000D01*
X158993000Y-144805000D02*
X158992000Y-144805000D01*
X158993000Y-148555000D02*
X156193000Y-148555000D01*
X159693000Y-144866000D02*
X159693000Y-144805000D01*
X159693000Y-148555000D02*
X159693000Y-146244000D01*
X162493000Y-144866000D02*
X162493000Y-144805000D01*
X162493000Y-148555000D02*
X162493000Y-146244000D01*
X159693000Y-144805000D02*
X159693000Y-144805000D01*
X162493000Y-144805000D02*
X162492000Y-144805000D01*
X162493000Y-148555000D02*
X159693000Y-148555000D01*
X163193000Y-144866000D02*
X163193000Y-144805000D01*
X163193000Y-148555000D02*
X163193000Y-146244000D01*
X165993000Y-144866000D02*
X165993000Y-144805000D01*
X165993000Y-148555000D02*
X165993000Y-146244000D01*
X163193000Y-144805000D02*
X163193000Y-144805000D01*
X165993000Y-144805000D02*
X165992000Y-144805000D01*
X165993000Y-148555000D02*
X163193000Y-148555000D01*
X166693000Y-144866000D02*
X166693000Y-144805000D01*
X166693000Y-148555000D02*
X166693000Y-146244000D01*
X169493000Y-144866000D02*
X169493000Y-144805000D01*
X169493000Y-148555000D02*
X169493000Y-146244000D01*
X166693000Y-144805000D02*
X166693000Y-144805000D01*
X169493000Y-144805000D02*
X169492000Y-144805000D01*
X169493000Y-148555000D02*
X166693000Y-148555000D01*
X170193000Y-144866000D02*
X170193000Y-144805000D01*
X170193000Y-148555000D02*
X170193000Y-146244000D01*
X172993000Y-144866000D02*
X172993000Y-144805000D01*
X172993000Y-148555000D02*
X172993000Y-146244000D01*
X170193000Y-144805000D02*
X170193000Y-144805000D01*
X172993000Y-144805000D02*
X172992000Y-144805000D01*
X172993000Y-148555000D02*
X170193000Y-148555000D01*
X173693000Y-144866000D02*
X173693000Y-144805000D01*
X173693000Y-148555000D02*
X173693000Y-146244000D01*
X176493000Y-144866000D02*
X176493000Y-144805000D01*
X176493000Y-148555000D02*
X176493000Y-146244000D01*
X173693000Y-144805000D02*
X173693000Y-144805000D01*
X176493000Y-144805000D02*
X176492000Y-144805000D01*
X176493000Y-148555000D02*
X173693000Y-148555000D01*
X177193000Y-144866000D02*
X177193000Y-144805000D01*
X177193000Y-148555000D02*
X177193000Y-146244000D01*
X179992000Y-144866000D02*
X179992000Y-144805000D01*
X179992000Y-148555000D02*
X179992000Y-146244000D01*
X177193000Y-144805000D02*
X177193000Y-144805000D01*
X179992000Y-144805000D02*
X179992000Y-144805000D01*
X179992000Y-148555000D02*
X177193000Y-148555000D01*
X180693000Y-144866000D02*
X180693000Y-144805000D01*
X180693000Y-148555000D02*
X180693000Y-146244000D01*
X183493000Y-144866000D02*
X183493000Y-144805000D01*
X183493000Y-148555000D02*
X183493000Y-146244000D01*
X180693000Y-144805000D02*
X180693000Y-144805000D01*
X183493000Y-144805000D02*
X183492000Y-144805000D01*
X183493000Y-148555000D02*
X180693000Y-148555000D01*
X184193000Y-144866000D02*
X184193000Y-144805000D01*
X184193000Y-148555000D02*
X184193000Y-146244000D01*
X186993000Y-144866000D02*
X186993000Y-144805000D01*
X186993000Y-148555000D02*
X186993000Y-146244000D01*
X184193000Y-144805000D02*
X184193000Y-144805000D01*
X186993000Y-144805000D02*
X186992000Y-144805000D01*
X186993000Y-148555000D02*
X184193000Y-148555000D01*
X187693000Y-144866000D02*
X187693000Y-144805000D01*
X187693000Y-148555000D02*
X187693000Y-146244000D01*
X190493000Y-144866000D02*
X190493000Y-144805000D01*
X190493000Y-148555000D02*
X190493000Y-146244000D01*
X187693000Y-144805000D02*
X187693000Y-144805000D01*
X190493000Y-144805000D02*
X190492000Y-144805000D01*
X190493000Y-148555000D02*
X187693000Y-148555000D01*
X191193000Y-144866000D02*
X191193000Y-144805000D01*
X191193000Y-148555000D02*
X191193000Y-146244000D01*
X193993000Y-144866000D02*
X193993000Y-144805000D01*
X193993000Y-148555000D02*
X193993000Y-146244000D01*
X191193000Y-144805000D02*
X191193000Y-144805000D01*
X193993000Y-144805000D02*
X193992000Y-144805000D01*
X193993000Y-148555000D02*
X191193000Y-148555000D01*
X194693000Y-148555000D02*
X194693000Y-147095000D01*
X197493000Y-148555000D02*
X197493000Y-147095000D01*
X197493000Y-148555000D02*
X194693000Y-148555000D01*
X155283000Y-149315000D02*
X155283000Y-140895000D01*
X198403000Y-149315000D02*
X198403000Y-140895000D01*
X198403000Y-140895000D02*
X155283000Y-140895000D01*
X198403000Y-149315000D02*
X155283000Y-149315000D01*
X156459000Y-144454000D02*
X155283000Y-144454000D01*
X159959000Y-144454000D02*
X158726000Y-144454000D01*
X163459000Y-144454000D02*
X162226000Y-144454000D01*
X166959000Y-144454000D02*
X165726000Y-144454000D01*
X170459000Y-144454000D02*
X169226000Y-144454000D01*
X173959000Y-144454000D02*
X172726000Y-144454000D01*
X177459000Y-144454000D02*
X176226000Y-144454000D01*
X180959000Y-144454000D02*
X179726000Y-144454000D01*
X184459000Y-144454000D02*
X183226000Y-144454000D01*
X187959000Y-144454000D02*
X186726000Y-144454000D01*
X191459000Y-144454000D02*
X190226000Y-144454000D01*
X194553000Y-144454000D02*
X193726000Y-144454000D01*
X198403000Y-144454000D02*
X197633000Y-144454000D01*
X158532915Y-146812767D02*
G75*
G02X156653000Y-146813000I-939915J-342233D01*
G01*
X162032915Y-146812767D02*
G75*
G02X160153000Y-146813000I-939915J-342233D01*
G01*
X165532915Y-146812767D02*
G75*
G02X163653000Y-146813000I-939915J-342233D01*
G01*
X169032915Y-146812767D02*
G75*
G02X167153000Y-146813000I-939915J-342233D01*
G01*
X172532915Y-146812767D02*
G75*
G02X170653000Y-146813000I-939915J-342233D01*
G01*
X176032915Y-146812767D02*
G75*
G02X174153000Y-146813000I-939915J-342233D01*
G01*
X179532915Y-146812767D02*
G75*
G02X177653000Y-146813000I-939915J-342233D01*
G01*
X183032915Y-146812767D02*
G75*
G02X181153000Y-146813000I-939915J-342233D01*
G01*
X186532915Y-146812767D02*
G75*
G02X184653000Y-146813000I-939915J-342233D01*
G01*
X190032915Y-146812767D02*
G75*
G02X188153000Y-146813000I-939915J-342233D01*
G01*
X193532915Y-146812767D02*
G75*
G02X191653000Y-146813000I-939915J-342233D01*
G01*
X197090890Y-147084434D02*
G75*
G02X195095000Y-147086000I-997890J-70566D01*
G01*
X243728000Y-140782000D02*
X241728000Y-140782000D01*
X243728000Y-143022000D02*
X243728000Y-140782000D01*
X208278000Y-144993000D02*
X208278000Y-144932000D01*
X208278000Y-148682000D02*
X208278000Y-146371000D01*
X211078000Y-144993000D02*
X211078000Y-144932000D01*
X211078000Y-148682000D02*
X211078000Y-146371000D01*
X208278000Y-144932000D02*
X208278000Y-144932000D01*
X211078000Y-144932000D02*
X211077000Y-144932000D01*
X211078000Y-148682000D02*
X208278000Y-148682000D01*
X211778000Y-144993000D02*
X211778000Y-144932000D01*
X211778000Y-148682000D02*
X211778000Y-146371000D01*
X214578000Y-144993000D02*
X214578000Y-144932000D01*
X214578000Y-148682000D02*
X214578000Y-146371000D01*
X211778000Y-144932000D02*
X211778000Y-144932000D01*
X214578000Y-144932000D02*
X214577000Y-144932000D01*
X214578000Y-148682000D02*
X211778000Y-148682000D01*
X215278000Y-144993000D02*
X215278000Y-144932000D01*
X215278000Y-148682000D02*
X215278000Y-146371000D01*
X218078000Y-144993000D02*
X218078000Y-144932000D01*
X218078000Y-148682000D02*
X218078000Y-146371000D01*
X215278000Y-144932000D02*
X215278000Y-144932000D01*
X218078000Y-144932000D02*
X218077000Y-144932000D01*
X218078000Y-148682000D02*
X215278000Y-148682000D01*
X218778000Y-144993000D02*
X218778000Y-144932000D01*
X218778000Y-148682000D02*
X218778000Y-146371000D01*
X221578000Y-144993000D02*
X221578000Y-144932000D01*
X221578000Y-148682000D02*
X221578000Y-146371000D01*
X218778000Y-144932000D02*
X218778000Y-144932000D01*
X221578000Y-144932000D02*
X221577000Y-144932000D01*
X221578000Y-148682000D02*
X218778000Y-148682000D01*
X222278000Y-144993000D02*
X222278000Y-144932000D01*
X222278000Y-148682000D02*
X222278000Y-146371000D01*
X225077000Y-144993000D02*
X225077000Y-144932000D01*
X225077000Y-148682000D02*
X225077000Y-146371000D01*
X222278000Y-144932000D02*
X222278000Y-144932000D01*
X225077000Y-144932000D02*
X225077000Y-144932000D01*
X225077000Y-148682000D02*
X222278000Y-148682000D01*
X225778000Y-144993000D02*
X225778000Y-144932000D01*
X225778000Y-148682000D02*
X225778000Y-146371000D01*
X228578000Y-144993000D02*
X228578000Y-144932000D01*
X228578000Y-148682000D02*
X228578000Y-146371000D01*
X225778000Y-144932000D02*
X225778000Y-144932000D01*
X228578000Y-144932000D02*
X228577000Y-144932000D01*
X228578000Y-148682000D02*
X225778000Y-148682000D01*
X229278000Y-144993000D02*
X229278000Y-144932000D01*
X229278000Y-148682000D02*
X229278000Y-146371000D01*
X232078000Y-144993000D02*
X232078000Y-144932000D01*
X232078000Y-148682000D02*
X232078000Y-146371000D01*
X229278000Y-144932000D02*
X229278000Y-144932000D01*
X232078000Y-144932000D02*
X232077000Y-144932000D01*
X232078000Y-148682000D02*
X229278000Y-148682000D01*
X232778000Y-144993000D02*
X232778000Y-144932000D01*
X232778000Y-148682000D02*
X232778000Y-146371000D01*
X235578000Y-144993000D02*
X235578000Y-144932000D01*
X235578000Y-148682000D02*
X235578000Y-146371000D01*
X232778000Y-144932000D02*
X232778000Y-144932000D01*
X235578000Y-144932000D02*
X235577000Y-144932000D01*
X235578000Y-148682000D02*
X232778000Y-148682000D01*
X236278000Y-144993000D02*
X236278000Y-144932000D01*
X236278000Y-148682000D02*
X236278000Y-146371000D01*
X239078000Y-144993000D02*
X239078000Y-144932000D01*
X239078000Y-148682000D02*
X239078000Y-146371000D01*
X236278000Y-144932000D02*
X236278000Y-144932000D01*
X239078000Y-144932000D02*
X239077000Y-144932000D01*
X239078000Y-148682000D02*
X236278000Y-148682000D01*
X239778000Y-148682000D02*
X239778000Y-147222000D01*
X242578000Y-148682000D02*
X242578000Y-147222000D01*
X242578000Y-148682000D02*
X239778000Y-148682000D01*
X207368000Y-149442000D02*
X207368000Y-141022000D01*
X243488000Y-149442000D02*
X243488000Y-141022000D01*
X243488000Y-141022000D02*
X207368000Y-141022000D01*
X243488000Y-149442000D02*
X207368000Y-149442000D01*
X208544000Y-144581000D02*
X207368000Y-144581000D01*
X212044000Y-144581000D02*
X210811000Y-144581000D01*
X215544000Y-144581000D02*
X214311000Y-144581000D01*
X219044000Y-144581000D02*
X217811000Y-144581000D01*
X222544000Y-144581000D02*
X221311000Y-144581000D01*
X226044000Y-144581000D02*
X224811000Y-144581000D01*
X229544000Y-144581000D02*
X228311000Y-144581000D01*
X233044000Y-144581000D02*
X231811000Y-144581000D01*
X236544000Y-144581000D02*
X235311000Y-144581000D01*
X239638000Y-144581000D02*
X238811000Y-144581000D01*
X243488000Y-144581000D02*
X242718000Y-144581000D01*
X210617915Y-146939767D02*
G75*
G02X208738000Y-146940000I-939915J-342233D01*
G01*
X214117915Y-146939767D02*
G75*
G02X212238000Y-146940000I-939915J-342233D01*
G01*
X217617915Y-146939767D02*
G75*
G02X215738000Y-146940000I-939915J-342233D01*
G01*
X221117915Y-146939767D02*
G75*
G02X219238000Y-146940000I-939915J-342233D01*
G01*
X224617915Y-146939767D02*
G75*
G02X222738000Y-146940000I-939915J-342233D01*
G01*
X228117915Y-146939767D02*
G75*
G02X226238000Y-146940000I-939915J-342233D01*
G01*
X231617915Y-146939767D02*
G75*
G02X229738000Y-146940000I-939915J-342233D01*
G01*
X235117915Y-146939767D02*
G75*
G02X233238000Y-146940000I-939915J-342233D01*
G01*
X238617915Y-146939767D02*
G75*
G02X236738000Y-146940000I-939915J-342233D01*
G01*
X242175890Y-147211434D02*
G75*
G02X240180000Y-147213000I-997890J-70566D01*
G01*
X159815000Y-140231000D02*
X159815000Y-138231000D01*
X157575000Y-140231000D02*
X159815000Y-140231000D01*
X155604000Y-104781000D02*
X155665000Y-104781000D01*
X151915000Y-104781000D02*
X154226000Y-104781000D01*
X155604000Y-107581000D02*
X155665000Y-107581000D01*
X151915000Y-107581000D02*
X154226000Y-107581000D01*
X155665000Y-104781000D02*
X155665000Y-104781000D01*
X155665000Y-107581000D02*
X155665000Y-107580000D01*
X151915000Y-107581000D02*
X151915000Y-104781000D01*
X155604000Y-108281000D02*
X155665000Y-108281000D01*
X151915000Y-108281000D02*
X154226000Y-108281000D01*
X155604000Y-111081000D02*
X155665000Y-111081000D01*
X151915000Y-111081000D02*
X154226000Y-111081000D01*
X155665000Y-108281000D02*
X155665000Y-108281000D01*
X155665000Y-111081000D02*
X155665000Y-111080000D01*
X151915000Y-111081000D02*
X151915000Y-108281000D01*
X155604000Y-111781000D02*
X155665000Y-111781000D01*
X151915000Y-111781000D02*
X154226000Y-111781000D01*
X155604000Y-114581000D02*
X155665000Y-114581000D01*
X151915000Y-114581000D02*
X154226000Y-114581000D01*
X155665000Y-111781000D02*
X155665000Y-111781000D01*
X155665000Y-114581000D02*
X155665000Y-114580000D01*
X151915000Y-114581000D02*
X151915000Y-111781000D01*
X155604000Y-115281000D02*
X155665000Y-115281000D01*
X151915000Y-115281000D02*
X154226000Y-115281000D01*
X155604000Y-118081000D02*
X155665000Y-118081000D01*
X151915000Y-118081000D02*
X154226000Y-118081000D01*
X155665000Y-115281000D02*
X155665000Y-115281000D01*
X155665000Y-118081000D02*
X155665000Y-118080000D01*
X151915000Y-118081000D02*
X151915000Y-115281000D01*
X155604000Y-118781000D02*
X155665000Y-118781000D01*
X151915000Y-118781000D02*
X154226000Y-118781000D01*
X155604000Y-121580000D02*
X155665000Y-121580000D01*
X151915000Y-121580000D02*
X154226000Y-121580000D01*
X155665000Y-118781000D02*
X155665000Y-118781000D01*
X155665000Y-121580000D02*
X155665000Y-121580000D01*
X151915000Y-121580000D02*
X151915000Y-118781000D01*
X155604000Y-122281000D02*
X155665000Y-122281000D01*
X151915000Y-122281000D02*
X154226000Y-122281000D01*
X155604000Y-125081000D02*
X155665000Y-125081000D01*
X151915000Y-125081000D02*
X154226000Y-125081000D01*
X155665000Y-122281000D02*
X155665000Y-122281000D01*
X155665000Y-125081000D02*
X155665000Y-125080000D01*
X151915000Y-125081000D02*
X151915000Y-122281000D01*
X155604000Y-125781000D02*
X155665000Y-125781000D01*
X151915000Y-125781000D02*
X154226000Y-125781000D01*
X155604000Y-128581000D02*
X155665000Y-128581000D01*
X151915000Y-128581000D02*
X154226000Y-128581000D01*
X155665000Y-125781000D02*
X155665000Y-125781000D01*
X155665000Y-128581000D02*
X155665000Y-128580000D01*
X151915000Y-128581000D02*
X151915000Y-125781000D01*
X155604000Y-129281000D02*
X155665000Y-129281000D01*
X151915000Y-129281000D02*
X154226000Y-129281000D01*
X155604000Y-132081000D02*
X155665000Y-132081000D01*
X151915000Y-132081000D02*
X154226000Y-132081000D01*
X155665000Y-129281000D02*
X155665000Y-129281000D01*
X155665000Y-132081000D02*
X155665000Y-132080000D01*
X151915000Y-132081000D02*
X151915000Y-129281000D01*
X155604000Y-132781000D02*
X155665000Y-132781000D01*
X151915000Y-132781000D02*
X154226000Y-132781000D01*
X155604000Y-135581000D02*
X155665000Y-135581000D01*
X151915000Y-135581000D02*
X154226000Y-135581000D01*
X155665000Y-132781000D02*
X155665000Y-132781000D01*
X155665000Y-135581000D02*
X155665000Y-135580000D01*
X151915000Y-135581000D02*
X151915000Y-132781000D01*
X151915000Y-136281000D02*
X153375000Y-136281000D01*
X151915000Y-139081000D02*
X153375000Y-139081000D01*
X151915000Y-139081000D02*
X151915000Y-136281000D01*
X151155000Y-103871000D02*
X159575000Y-103871000D01*
X151155000Y-139991000D02*
X159575000Y-139991000D01*
X159575000Y-139991000D02*
X159575000Y-103871000D01*
X151155000Y-139991000D02*
X151155000Y-103871000D01*
X156016000Y-105047000D02*
X156016000Y-103871000D01*
X156016000Y-108547000D02*
X156016000Y-107314000D01*
X156016000Y-112047000D02*
X156016000Y-110814000D01*
X156016000Y-115547000D02*
X156016000Y-114314000D01*
X156016000Y-119047000D02*
X156016000Y-117814000D01*
X156016000Y-122547000D02*
X156016000Y-121314000D01*
X156016000Y-126047000D02*
X156016000Y-124814000D01*
X156016000Y-129547000D02*
X156016000Y-128314000D01*
X156016000Y-133047000D02*
X156016000Y-131814000D01*
X156016000Y-136141000D02*
X156016000Y-135314000D01*
X156016000Y-139991000D02*
X156016000Y-139221000D01*
X153657233Y-107120915D02*
G75*
G02X153657000Y-105241000I-342233J939915D01*
G01*
X153657233Y-110620915D02*
G75*
G02X153657000Y-108741000I-342233J939915D01*
G01*
X153657233Y-114120915D02*
G75*
G02X153657000Y-112241000I-342233J939915D01*
G01*
X153657233Y-117620915D02*
G75*
G02X153657000Y-115741000I-342233J939915D01*
G01*
X153657233Y-121120915D02*
G75*
G02X153657000Y-119241000I-342233J939915D01*
G01*
X153657233Y-124620915D02*
G75*
G02X153657000Y-122741000I-342233J939915D01*
G01*
X153657233Y-128120915D02*
G75*
G02X153657000Y-126241000I-342233J939915D01*
G01*
X153657233Y-131620915D02*
G75*
G02X153657000Y-129741000I-342233J939915D01*
G01*
X153657233Y-135120915D02*
G75*
G02X153657000Y-133241000I-342233J939915D01*
G01*
X153385566Y-138678890D02*
G75*
G02X153384000Y-136683000I-70566J997890D01*
G01*
X186665000Y-126148000D02*
X186665000Y-126838000D01*
X186665000Y-136768000D02*
X186665000Y-136078000D01*
X184945000Y-126838000D02*
X184945000Y-136078000D01*
X188385000Y-126838000D02*
X184945000Y-126838000D01*
X188385000Y-136078000D02*
X188385000Y-126838000D01*
X184945000Y-136078000D02*
X188385000Y-136078000D01*
X182855000Y-126148000D02*
X182855000Y-126838000D01*
X182855000Y-136768000D02*
X182855000Y-136078000D01*
X181135000Y-126838000D02*
X181135000Y-136078000D01*
X184575000Y-126838000D02*
X181135000Y-126838000D01*
X184575000Y-136078000D02*
X184575000Y-126838000D01*
X181135000Y-136078000D02*
X184575000Y-136078000D01*
X246845000Y-149301000D02*
X248345000Y-149301000D01*
X246845000Y-147561000D02*
X246845000Y-149301000D01*
X254792000Y-146215000D02*
X254716000Y-146291000D01*
X256885000Y-144121000D02*
X256831000Y-144175000D01*
X254960000Y-146426000D02*
X254906000Y-146481000D01*
X257075000Y-144311000D02*
X256999000Y-144387000D01*
X251292000Y-146215000D02*
X251216000Y-146291000D01*
X253385000Y-144121000D02*
X253331000Y-144175000D01*
X251460000Y-146426000D02*
X251406000Y-146481000D01*
X253575000Y-144311000D02*
X253499000Y-144387000D01*
X257705000Y-142441000D02*
X257705000Y-149061000D01*
X247085000Y-142441000D02*
X247085000Y-149061000D01*
X247085000Y-149061000D02*
X257705000Y-149061000D01*
X247085000Y-142441000D02*
X257705000Y-142441000D01*
X247085000Y-147501000D02*
X257705000Y-147501000D01*
X257450000Y-145301000D02*
G75*
G03X257450000Y-145301000I-1555000J0D01*
G01*
X253950000Y-145301000D02*
G75*
G03X253950000Y-145301000I-1555000J0D01*
G01*
X248921444Y-146856681D02*
G75*
G02X248188000Y-146687000I-26444J1555681D01*
G01*
X247508355Y-146006733D02*
G75*
G02X247509000Y-144594000I1386645J705733D01*
G01*
X248189267Y-143914355D02*
G75*
G02X249602000Y-143915000I705733J-1386645D01*
G01*
X250281645Y-144595267D02*
G75*
G02X250281000Y-146008000I-1386645J-705733D01*
G01*
X249600955Y-146686515D02*
G75*
G02X248895000Y-146856000I-705955J1385515D01*
G01*
D11*
X175228666Y-93003380D02*
X175228666Y-93717666D01*
X175181047Y-93860523D01*
X175085809Y-93955761D01*
X174942952Y-94003380D01*
X174847714Y-94003380D01*
X175657238Y-93098619D02*
X175704857Y-93051000D01*
X175800095Y-93003380D01*
X176038190Y-93003380D01*
X176133428Y-93051000D01*
X176181047Y-93098619D01*
X176228666Y-93193857D01*
X176228666Y-93289095D01*
X176181047Y-93431952D01*
X175609619Y-94003380D01*
X176228666Y-94003380D01*
X250887380Y-125107904D02*
X251696904Y-125107904D01*
X251792142Y-125060285D01*
X251839761Y-125012666D01*
X251887380Y-124917428D01*
X251887380Y-124726952D01*
X251839761Y-124631714D01*
X251792142Y-124584095D01*
X251696904Y-124536476D01*
X250887380Y-124536476D01*
X250887380Y-124155523D02*
X250887380Y-123536476D01*
X251268333Y-123869809D01*
X251268333Y-123726952D01*
X251315952Y-123631714D01*
X251363571Y-123584095D01*
X251458809Y-123536476D01*
X251696904Y-123536476D01*
X251792142Y-123584095D01*
X251839761Y-123631714D01*
X251887380Y-123726952D01*
X251887380Y-124012666D01*
X251839761Y-124107904D01*
X251792142Y-124155523D01*
X165900595Y-103033880D02*
X165900595Y-103843404D01*
X165948214Y-103938642D01*
X165995833Y-103986261D01*
X166091071Y-104033880D01*
X166281547Y-104033880D01*
X166376785Y-103986261D01*
X166424404Y-103938642D01*
X166472023Y-103843404D01*
X166472023Y-103033880D01*
X167424404Y-103033880D02*
X166948214Y-103033880D01*
X166900595Y-103510071D01*
X166948214Y-103462452D01*
X167043452Y-103414833D01*
X167281547Y-103414833D01*
X167376785Y-103462452D01*
X167424404Y-103510071D01*
X167472023Y-103605309D01*
X167472023Y-103843404D01*
X167424404Y-103938642D01*
X167376785Y-103986261D01*
X167281547Y-104033880D01*
X167043452Y-104033880D01*
X166948214Y-103986261D01*
X166900595Y-103938642D01*
X194372333Y-131910380D02*
X194039000Y-131434190D01*
X193800904Y-131910380D02*
X193800904Y-130910380D01*
X194181857Y-130910380D01*
X194277095Y-130958000D01*
X194324714Y-131005619D01*
X194372333Y-131100857D01*
X194372333Y-131243714D01*
X194324714Y-131338952D01*
X194277095Y-131386571D01*
X194181857Y-131434190D01*
X193800904Y-131434190D01*
X195229476Y-131243714D02*
X195229476Y-131910380D01*
X194991380Y-130862761D02*
X194753285Y-131577047D01*
X195372333Y-131577047D01*
X190562333Y-131910380D02*
X190229000Y-131434190D01*
X189990904Y-131910380D02*
X189990904Y-130910380D01*
X190371857Y-130910380D01*
X190467095Y-130958000D01*
X190514714Y-131005619D01*
X190562333Y-131100857D01*
X190562333Y-131243714D01*
X190514714Y-131338952D01*
X190467095Y-131386571D01*
X190371857Y-131434190D01*
X189990904Y-131434190D01*
X190895666Y-130910380D02*
X191514714Y-130910380D01*
X191181380Y-131291333D01*
X191324238Y-131291333D01*
X191419476Y-131338952D01*
X191467095Y-131386571D01*
X191514714Y-131481809D01*
X191514714Y-131719904D01*
X191467095Y-131815142D01*
X191419476Y-131862761D01*
X191324238Y-131910380D01*
X191038523Y-131910380D01*
X190943285Y-131862761D01*
X190895666Y-131815142D01*
X187133380Y-120789904D02*
X187942904Y-120789904D01*
X188038142Y-120742285D01*
X188085761Y-120694666D01*
X188133380Y-120599428D01*
X188133380Y-120408952D01*
X188085761Y-120313714D01*
X188038142Y-120266095D01*
X187942904Y-120218476D01*
X187133380Y-120218476D01*
X187228619Y-119789904D02*
X187181000Y-119742285D01*
X187133380Y-119647047D01*
X187133380Y-119408952D01*
X187181000Y-119313714D01*
X187228619Y-119266095D01*
X187323857Y-119218476D01*
X187419095Y-119218476D01*
X187561952Y-119266095D01*
X188133380Y-119837523D01*
X188133380Y-119218476D01*
X210374380Y-138157095D02*
X211183904Y-138157095D01*
X211279142Y-138109476D01*
X211326761Y-138061857D01*
X211374380Y-137966619D01*
X211374380Y-137776142D01*
X211326761Y-137680904D01*
X211279142Y-137633285D01*
X211183904Y-137585666D01*
X210374380Y-137585666D01*
X211374380Y-136585666D02*
X211374380Y-137157095D01*
X211374380Y-136871380D02*
X210374380Y-136871380D01*
X210517238Y-136966619D01*
X210612476Y-137061857D01*
X210660095Y-137157095D01*
X210374380Y-135680904D02*
X210374380Y-136157095D01*
X210850571Y-136204714D01*
X210802952Y-136157095D01*
X210755333Y-136061857D01*
X210755333Y-135823761D01*
X210802952Y-135728523D01*
X210850571Y-135680904D01*
X210945809Y-135633285D01*
X211183904Y-135633285D01*
X211279142Y-135680904D01*
X211326761Y-135728523D01*
X211374380Y-135823761D01*
X211374380Y-136061857D01*
X211326761Y-136157095D01*
X211279142Y-136204714D01*
X232853380Y-138284095D02*
X233662904Y-138284095D01*
X233758142Y-138236476D01*
X233805761Y-138188857D01*
X233853380Y-138093619D01*
X233853380Y-137903142D01*
X233805761Y-137807904D01*
X233758142Y-137760285D01*
X233662904Y-137712666D01*
X232853380Y-137712666D01*
X233853380Y-136712666D02*
X233853380Y-137284095D01*
X233853380Y-136998380D02*
X232853380Y-136998380D01*
X232996238Y-137093619D01*
X233091476Y-137188857D01*
X233139095Y-137284095D01*
X233186714Y-135855523D02*
X233853380Y-135855523D01*
X232805761Y-136093619D02*
X233520047Y-136331714D01*
X233520047Y-135712666D01*
X221677380Y-138157095D02*
X222486904Y-138157095D01*
X222582142Y-138109476D01*
X222629761Y-138061857D01*
X222677380Y-137966619D01*
X222677380Y-137776142D01*
X222629761Y-137680904D01*
X222582142Y-137633285D01*
X222486904Y-137585666D01*
X221677380Y-137585666D01*
X222677380Y-136585666D02*
X222677380Y-137157095D01*
X222677380Y-136871380D02*
X221677380Y-136871380D01*
X221820238Y-136966619D01*
X221915476Y-137061857D01*
X221963095Y-137157095D01*
X221677380Y-136252333D02*
X221677380Y-135633285D01*
X222058333Y-135966619D01*
X222058333Y-135823761D01*
X222105952Y-135728523D01*
X222153571Y-135680904D01*
X222248809Y-135633285D01*
X222486904Y-135633285D01*
X222582142Y-135680904D01*
X222629761Y-135728523D01*
X222677380Y-135823761D01*
X222677380Y-136109476D01*
X222629761Y-136204714D01*
X222582142Y-136252333D01*
X221042380Y-106661095D02*
X221851904Y-106661095D01*
X221947142Y-106613476D01*
X221994761Y-106565857D01*
X222042380Y-106470619D01*
X222042380Y-106280142D01*
X221994761Y-106184904D01*
X221947142Y-106137285D01*
X221851904Y-106089666D01*
X221042380Y-106089666D01*
X222042380Y-105089666D02*
X222042380Y-105661095D01*
X222042380Y-105375380D02*
X221042380Y-105375380D01*
X221185238Y-105470619D01*
X221280476Y-105565857D01*
X221328095Y-105661095D01*
X221137619Y-104708714D02*
X221090000Y-104661095D01*
X221042380Y-104565857D01*
X221042380Y-104327761D01*
X221090000Y-104232523D01*
X221137619Y-104184904D01*
X221232857Y-104137285D01*
X221328095Y-104137285D01*
X221470952Y-104184904D01*
X222042380Y-104756333D01*
X222042380Y-104137285D01*
X243775380Y-106280095D02*
X244584904Y-106280095D01*
X244680142Y-106232476D01*
X244727761Y-106184857D01*
X244775380Y-106089619D01*
X244775380Y-105899142D01*
X244727761Y-105803904D01*
X244680142Y-105756285D01*
X244584904Y-105708666D01*
X243775380Y-105708666D01*
X244775380Y-104708666D02*
X244775380Y-105280095D01*
X244775380Y-104994380D02*
X243775380Y-104994380D01*
X243918238Y-105089619D01*
X244013476Y-105184857D01*
X244061095Y-105280095D01*
X244775380Y-103756285D02*
X244775380Y-104327714D01*
X244775380Y-104042000D02*
X243775380Y-104042000D01*
X243918238Y-104137238D01*
X244013476Y-104232476D01*
X244061095Y-104327714D01*
X199071380Y-121266095D02*
X199880904Y-121266095D01*
X199976142Y-121218476D01*
X200023761Y-121170857D01*
X200071380Y-121075619D01*
X200071380Y-120885142D01*
X200023761Y-120789904D01*
X199976142Y-120742285D01*
X199880904Y-120694666D01*
X199071380Y-120694666D01*
X200071380Y-119694666D02*
X200071380Y-120266095D01*
X200071380Y-119980380D02*
X199071380Y-119980380D01*
X199214238Y-120075619D01*
X199309476Y-120170857D01*
X199357095Y-120266095D01*
X199071380Y-119075619D02*
X199071380Y-118980380D01*
X199119000Y-118885142D01*
X199166619Y-118837523D01*
X199261857Y-118789904D01*
X199452333Y-118742285D01*
X199690428Y-118742285D01*
X199880904Y-118789904D01*
X199976142Y-118837523D01*
X200023761Y-118885142D01*
X200071380Y-118980380D01*
X200071380Y-119075619D01*
X200023761Y-119170857D01*
X199976142Y-119218476D01*
X199880904Y-119266095D01*
X199690428Y-119313714D01*
X199452333Y-119313714D01*
X199261857Y-119266095D01*
X199166619Y-119218476D01*
X199119000Y-119170857D01*
X199071380Y-119075619D01*
X244065380Y-137748904D02*
X244874904Y-137748904D01*
X244970142Y-137701285D01*
X245017761Y-137653666D01*
X245065380Y-137558428D01*
X245065380Y-137367952D01*
X245017761Y-137272714D01*
X244970142Y-137225095D01*
X244874904Y-137177476D01*
X244065380Y-137177476D01*
X245065380Y-136653666D02*
X245065380Y-136463190D01*
X245017761Y-136367952D01*
X244970142Y-136320333D01*
X244827285Y-136225095D01*
X244636809Y-136177476D01*
X244255857Y-136177476D01*
X244160619Y-136225095D01*
X244113000Y-136272714D01*
X244065380Y-136367952D01*
X244065380Y-136558428D01*
X244113000Y-136653666D01*
X244160619Y-136701285D01*
X244255857Y-136748904D01*
X244493952Y-136748904D01*
X244589190Y-136701285D01*
X244636809Y-136653666D01*
X244684428Y-136558428D01*
X244684428Y-136367952D01*
X244636809Y-136272714D01*
X244589190Y-136225095D01*
X244493952Y-136177476D01*
X255205380Y-137807904D02*
X256014904Y-137807904D01*
X256110142Y-137760285D01*
X256157761Y-137712666D01*
X256205380Y-137617428D01*
X256205380Y-137426952D01*
X256157761Y-137331714D01*
X256110142Y-137284095D01*
X256014904Y-137236476D01*
X255205380Y-137236476D01*
X255633952Y-136617428D02*
X255586333Y-136712666D01*
X255538714Y-136760285D01*
X255443476Y-136807904D01*
X255395857Y-136807904D01*
X255300619Y-136760285D01*
X255253000Y-136712666D01*
X255205380Y-136617428D01*
X255205380Y-136426952D01*
X255253000Y-136331714D01*
X255300619Y-136284095D01*
X255395857Y-136236476D01*
X255443476Y-136236476D01*
X255538714Y-136284095D01*
X255586333Y-136331714D01*
X255633952Y-136426952D01*
X255633952Y-136617428D01*
X255681571Y-136712666D01*
X255729190Y-136760285D01*
X255824428Y-136807904D01*
X256014904Y-136807904D01*
X256110142Y-136760285D01*
X256157761Y-136712666D01*
X256205380Y-136617428D01*
X256205380Y-136426952D01*
X256157761Y-136331714D01*
X256110142Y-136284095D01*
X256014904Y-136236476D01*
X255824428Y-136236476D01*
X255729190Y-136284095D01*
X255681571Y-136331714D01*
X255633952Y-136426952D01*
X225360380Y-118884904D02*
X226169904Y-118884904D01*
X226265142Y-118837285D01*
X226312761Y-118789666D01*
X226360380Y-118694428D01*
X226360380Y-118503952D01*
X226312761Y-118408714D01*
X226265142Y-118361095D01*
X226169904Y-118313476D01*
X225360380Y-118313476D01*
X225360380Y-117932523D02*
X225360380Y-117265857D01*
X226360380Y-117694428D01*
X247585380Y-118884904D02*
X248394904Y-118884904D01*
X248490142Y-118837285D01*
X248537761Y-118789666D01*
X248585380Y-118694428D01*
X248585380Y-118503952D01*
X248537761Y-118408714D01*
X248490142Y-118361095D01*
X248394904Y-118313476D01*
X247585380Y-118313476D01*
X247585380Y-117408714D02*
X247585380Y-117599190D01*
X247633000Y-117694428D01*
X247680619Y-117742047D01*
X247823476Y-117837285D01*
X248013952Y-117884904D01*
X248394904Y-117884904D01*
X248490142Y-117837285D01*
X248537761Y-117789666D01*
X248585380Y-117694428D01*
X248585380Y-117503952D01*
X248537761Y-117408714D01*
X248490142Y-117361095D01*
X248394904Y-117313476D01*
X248156809Y-117313476D01*
X248061571Y-117361095D01*
X248013952Y-117408714D01*
X247966333Y-117503952D01*
X247966333Y-117694428D01*
X248013952Y-117789666D01*
X248061571Y-117837285D01*
X248156809Y-117884904D01*
X214184380Y-118884904D02*
X214993904Y-118884904D01*
X215089142Y-118837285D01*
X215136761Y-118789666D01*
X215184380Y-118694428D01*
X215184380Y-118503952D01*
X215136761Y-118408714D01*
X215089142Y-118361095D01*
X214993904Y-118313476D01*
X214184380Y-118313476D01*
X214517714Y-117408714D02*
X215184380Y-117408714D01*
X214136761Y-117646809D02*
X214851047Y-117884904D01*
X214851047Y-117265857D01*
X162535095Y-139673380D02*
X162535095Y-140482904D01*
X162582714Y-140578142D01*
X162630333Y-140625761D01*
X162725571Y-140673380D01*
X162916047Y-140673380D01*
X163011285Y-140625761D01*
X163058904Y-140578142D01*
X163106523Y-140482904D01*
X163106523Y-139673380D01*
X164106523Y-140673380D02*
X163535095Y-140673380D01*
X163820809Y-140673380D02*
X163820809Y-139673380D01*
X163725571Y-139816238D01*
X163630333Y-139911476D01*
X163535095Y-139959095D01*
X199412666Y-142848380D02*
X199412666Y-143562666D01*
X199365047Y-143705523D01*
X199269809Y-143800761D01*
X199126952Y-143848380D01*
X199031714Y-143848380D01*
X200317428Y-143181714D02*
X200317428Y-143848380D01*
X200079333Y-142800761D02*
X199841238Y-143515047D01*
X200460285Y-143515047D01*
X244370666Y-140943380D02*
X244370666Y-141657666D01*
X244323047Y-141800523D01*
X244227809Y-141895761D01*
X244084952Y-141943380D01*
X243989714Y-141943380D01*
X244751619Y-140943380D02*
X245370666Y-140943380D01*
X245037333Y-141324333D01*
X245180190Y-141324333D01*
X245275428Y-141371952D01*
X245323047Y-141419571D01*
X245370666Y-141514809D01*
X245370666Y-141752904D01*
X245323047Y-141848142D01*
X245275428Y-141895761D01*
X245180190Y-141943380D01*
X244894476Y-141943380D01*
X244799238Y-141895761D01*
X244751619Y-141848142D01*
X149607380Y-122264333D02*
X150321666Y-122264333D01*
X150464523Y-122311952D01*
X150559761Y-122407190D01*
X150607380Y-122550047D01*
X150607380Y-122645285D01*
X150607380Y-121264333D02*
X150607380Y-121835761D01*
X150607380Y-121550047D02*
X149607380Y-121550047D01*
X149750238Y-121645285D01*
X149845476Y-121740523D01*
X149893095Y-121835761D01*
X186498333Y-131910380D02*
X186165000Y-131434190D01*
X185926904Y-131910380D02*
X185926904Y-130910380D01*
X186307857Y-130910380D01*
X186403095Y-130958000D01*
X186450714Y-131005619D01*
X186498333Y-131100857D01*
X186498333Y-131243714D01*
X186450714Y-131338952D01*
X186403095Y-131386571D01*
X186307857Y-131434190D01*
X185926904Y-131434190D01*
X186879285Y-131005619D02*
X186926904Y-130958000D01*
X187022142Y-130910380D01*
X187260238Y-130910380D01*
X187355476Y-130958000D01*
X187403095Y-131005619D01*
X187450714Y-131100857D01*
X187450714Y-131196095D01*
X187403095Y-131338952D01*
X186831666Y-131910380D01*
X187450714Y-131910380D01*
X182688333Y-131910380D02*
X182355000Y-131434190D01*
X182116904Y-131910380D02*
X182116904Y-130910380D01*
X182497857Y-130910380D01*
X182593095Y-130958000D01*
X182640714Y-131005619D01*
X182688333Y-131100857D01*
X182688333Y-131243714D01*
X182640714Y-131338952D01*
X182593095Y-131386571D01*
X182497857Y-131434190D01*
X182116904Y-131434190D01*
X183640714Y-131910380D02*
X183069285Y-131910380D01*
X183355000Y-131910380D02*
X183355000Y-130910380D01*
X183259761Y-131053238D01*
X183164523Y-131148476D01*
X183069285Y-131196095D01*
X252061666Y-140893380D02*
X252061666Y-141607666D01*
X252014047Y-141750523D01*
X251918809Y-141845761D01*
X251775952Y-141893380D01*
X251680714Y-141893380D01*
X253014047Y-140893380D02*
X252537857Y-140893380D01*
X252490238Y-141369571D01*
X252537857Y-141321952D01*
X252633095Y-141274333D01*
X252871190Y-141274333D01*
X252966428Y-141321952D01*
X253014047Y-141369571D01*
X253061666Y-141464809D01*
X253061666Y-141702904D01*
X253014047Y-141798142D01*
X252966428Y-141845761D01*
X252871190Y-141893380D01*
X252633095Y-141893380D01*
X252537857Y-141845761D01*
X252490238Y-141798142D01*
X261936476Y-143594380D02*
X261936476Y-142594380D01*
X262269809Y-143308666D01*
X262603142Y-142594380D01*
X262603142Y-143594380D01*
X263079333Y-143594380D02*
X263079333Y-142594380D01*
X263650761Y-143594380D02*
X263222190Y-143022952D01*
X263650761Y-142594380D02*
X263079333Y-143165809D01*
X264507904Y-142927714D02*
X264507904Y-143594380D01*
X264269809Y-142546761D02*
X264031714Y-143261047D01*
X264650761Y-143261047D01*
X202190476Y-143252380D02*
X202190476Y-142252380D01*
X202523809Y-142966666D01*
X202857142Y-142252380D01*
X202857142Y-143252380D01*
X203333333Y-143252380D02*
X203333333Y-142252380D01*
X203904761Y-143252380D02*
X203476190Y-142680952D01*
X203904761Y-142252380D02*
X203333333Y-142823809D01*
X204238095Y-142252380D02*
X204857142Y-142252380D01*
X204523809Y-142633333D01*
X204666666Y-142633333D01*
X204761904Y-142680952D01*
X204809523Y-142728571D01*
X204857142Y-142823809D01*
X204857142Y-143061904D01*
X204809523Y-143157142D01*
X204761904Y-143204761D01*
X204666666Y-143252380D01*
X204380952Y-143252380D01*
X204285714Y-143204761D01*
X204238095Y-143157142D01*
X260190476Y-101652380D02*
X260190476Y-100652380D01*
X260523809Y-101366666D01*
X260857142Y-100652380D01*
X260857142Y-101652380D01*
X261333333Y-101652380D02*
X261333333Y-100652380D01*
X261904761Y-101652380D02*
X261476190Y-101080952D01*
X261904761Y-100652380D02*
X261333333Y-101223809D01*
X262285714Y-100747619D02*
X262333333Y-100700000D01*
X262428571Y-100652380D01*
X262666666Y-100652380D01*
X262761904Y-100700000D01*
X262809523Y-100747619D01*
X262857142Y-100842857D01*
X262857142Y-100938095D01*
X262809523Y-101080952D01*
X262238095Y-101652380D01*
X262857142Y-101652380D01*
X202190476Y-101652380D02*
X202190476Y-100652380D01*
X202523809Y-101366666D01*
X202857142Y-100652380D01*
X202857142Y-101652380D01*
X203333333Y-101652380D02*
X203333333Y-100652380D01*
X203904761Y-101652380D02*
X203476190Y-101080952D01*
X203904761Y-100652380D02*
X203333333Y-101223809D01*
X204857142Y-101652380D02*
X204285714Y-101652380D01*
X204571428Y-101652380D02*
X204571428Y-100652380D01*
X204476190Y-100795238D01*
X204380952Y-100890476D01*
X204285714Y-100938095D01*
M02*
