M48
; DRILL file {KiCad (5.1.5)-3} date 24/02/2020 8:34:48 AM
; FORMAT={-:-/ absolute / inch / decimal}
; #@! TF.CreationDate,2020-02-24T08:34:48+08:00
; #@! TF.GenerationSoftware,Kicad,Pcbnew,(5.1.5)-3
; #@! TF.FileFunction,Plated,1,2,PTH
FMAT,2
INCH
T1C0.0236
T2C0.0276
T3C0.0315
T4C0.0394
T5C0.0472
T6C0.0512
%
G90
G05
T1
X6.739Y-5.4705
X7.044Y-4.2955
X7.144Y-4.0055
X7.4313Y-4.3378
X7.489Y-4.3905
X7.519Y-4.4455
X7.639Y-5.1955
X8.099Y-5.2005
X8.444Y-5.1905
X8.979Y-4.3555
X9.029Y-4.4055
X9.079Y-4.4605
X9.174Y-4.3955
X9.429Y-4.6005
X9.909Y-4.1505
T2
X6.554Y-4.7905
X7.854Y-4.0655
X9.7065Y-5.223
X9.8915Y-5.2255
T3
X7.199Y-4.9255
X7.199Y-5.4255
X7.659Y-4.9255
X7.659Y-5.4255
X7.509Y-4.9255
X7.509Y-5.4255
X6.3965Y-4.163
X6.3965Y-4.263
X6.3965Y-4.363
X6.3965Y-4.463
X6.3965Y-4.563
X6.3965Y-4.663
X6.3965Y-4.763
X6.3965Y-4.863
X6.6965Y-4.163
X6.6965Y-4.263
X6.6965Y-4.363
X6.6965Y-4.463
X6.6965Y-4.563
X6.6965Y-4.663
X6.6965Y-4.763
X6.6965Y-4.863
X7.349Y-4.9255
X7.349Y-5.4255
T4
X8.2035Y-3.7886
X8.2035Y-3.8886
X8.3035Y-3.7886
X8.3035Y-3.8886
X8.4035Y-3.7886
X8.4035Y-3.8886
X8.5035Y-3.7886
X8.5035Y-3.8886
X8.6035Y-3.7886
X8.6035Y-3.8886
X8.7035Y-3.7886
X8.7035Y-3.8886
X8.8035Y-3.7886
X8.8035Y-3.8886
X8.9035Y-3.7886
X8.9035Y-3.8886
X9.0035Y-3.7886
X9.0035Y-3.8886
X9.1035Y-3.7886
X9.1035Y-3.8886
X9.2035Y-3.7886
X9.2035Y-3.8886
X9.3035Y-3.7886
X9.3035Y-3.8886
X9.4035Y-3.7886
X9.4035Y-3.8886
X9.5035Y-3.7886
X9.5035Y-3.8886
X9.6035Y-3.7886
X9.6035Y-3.8886
X9.7035Y-3.7886
X9.7035Y-3.8886
X9.8035Y-3.7886
X9.8035Y-3.8886
X9.9035Y-3.7886
X9.9035Y-3.8886
X10.0035Y-3.7886
X10.0035Y-3.8886
X10.1035Y-3.7886
X10.1035Y-3.8886
T5
X9.799Y-5.7205
X9.9368Y-5.7205
X10.0746Y-5.7205
T6
X6.939Y-4.1755
X6.939Y-4.7755
X7.239Y-4.1755
X7.239Y-4.6755
X9.619Y-4.8455
X9.619Y-5.4455
X9.919Y-4.8455
X9.919Y-5.3455
X8.299Y-4.8405
X8.299Y-5.4405
X8.599Y-4.8405
X8.599Y-5.3405
X6.099Y-4.1804
X6.099Y-4.3181
X6.099Y-4.4559
X6.099Y-4.5937
X6.099Y-4.7315
X6.099Y-4.8693
X6.099Y-5.0071
X6.099Y-5.1449
X6.099Y-5.2827
X6.099Y-5.4205
X10.049Y-4.9455
X10.049Y-5.4455
X10.349Y-4.8455
X10.349Y-5.4455
X8.004Y-4.1005
X8.004Y-4.7005
X8.304Y-4.1005
X8.304Y-4.6005
X8.444Y-4.1005
X8.444Y-4.7005
X8.744Y-4.1005
X8.744Y-4.6005
X8.874Y-4.2005
X8.874Y-4.7005
X9.174Y-4.1005
X9.174Y-4.7005
X8.255Y-5.7355
X8.3928Y-5.7355
X8.5306Y-5.7355
X8.6684Y-5.7355
X8.8062Y-5.7355
X8.944Y-5.7355
X9.0818Y-5.7355
X9.2196Y-5.7355
X9.3574Y-5.7355
X9.4952Y-5.7355
X6.154Y-3.8705
X6.2918Y-3.8705
X6.4296Y-3.8705
X6.5674Y-3.8705
X6.7052Y-3.8705
X6.843Y-3.8705
X6.9808Y-3.8705
X7.1186Y-3.8705
X7.2564Y-3.8705
X7.3942Y-3.8705
X7.532Y-3.8705
X7.6698Y-3.8705
X9.769Y-4.1855
X9.769Y-4.6855
X10.069Y-4.0855
X10.069Y-4.6855
X8.739Y-4.8455
X8.739Y-5.4455
X9.039Y-4.8455
X9.039Y-5.3455
X6.2044Y-5.7305
X6.3422Y-5.7305
X6.48Y-5.7305
X6.6178Y-5.7305
X6.7556Y-5.7305
X6.8934Y-5.7305
X7.0312Y-5.7305
X7.169Y-5.7305
X7.3068Y-5.7305
X7.4446Y-5.7305
X7.5824Y-5.7305
X7.7202Y-5.7305
X7.409Y-4.1755
X7.409Y-4.7755
X7.709Y-4.1755
X7.709Y-4.6755
X9.1804Y-4.8432
X9.1804Y-5.4432
X9.4804Y-4.8432
X9.4804Y-5.3432
X7.854Y-4.8405
X7.854Y-5.4405
X8.154Y-4.8405
X8.154Y-5.3405
X9.319Y-4.1005
X9.319Y-4.7005
X9.619Y-4.1005
X9.619Y-4.6005
X6.379Y-5.0705
X6.479Y-5.3705
X6.979Y-5.0705
X6.979Y-5.3705
T0
M30
