G04 #@! TF.GenerationSoftware,KiCad,Pcbnew,(5.1.5)-3*
G04 #@! TF.CreationDate,2020-02-21T15:06:44+08:00*
G04 #@! TF.ProjectId,Test,54657374-2e6b-4696-9361-645f70636258,rev?*
G04 #@! TF.SameCoordinates,Original*
G04 #@! TF.FileFunction,Soldermask,Top*
G04 #@! TF.FilePolarity,Negative*
%FSLAX46Y46*%
G04 Gerber Fmt 4.6, Leading zero omitted, Abs format (unit mm)*
G04 Created by KiCad (PCBNEW (5.1.5)-3) date 2020-02-21 15:06:44*
%MOMM*%
%LPD*%
G04 APERTURE LIST*
%ADD10C,2.600000*%
%ADD11R,2.600000X2.600000*%
%ADD12C,3.000000*%
%ADD13R,1.700000X1.700000*%
%ADD14O,1.700000X1.700000*%
%ADD15O,1.600000X1.600000*%
%ADD16R,1.600000X1.600000*%
%ADD17C,1.600000*%
%ADD18C,2.300000*%
%ADD19R,2.300000X2.300000*%
%ADD20C,2.700000*%
G04 APERTURE END LIST*
D10*
X194812000Y-98311000D03*
X191312000Y-98311000D03*
X187812000Y-98311000D03*
X184312000Y-98311000D03*
X180812000Y-98311000D03*
X177312000Y-98311000D03*
X173812000Y-98311000D03*
X170312000Y-98311000D03*
X166812000Y-98311000D03*
X163312000Y-98311000D03*
X159812000Y-98311000D03*
D11*
X156312000Y-98311000D03*
D12*
X262865000Y-123076000D03*
X255245000Y-125616000D03*
X262865000Y-138316000D03*
X255245000Y-138316000D03*
D13*
X208370000Y-98770000D03*
D14*
X208370000Y-96230000D03*
X210910000Y-98770000D03*
X210910000Y-96230000D03*
X213450000Y-98770000D03*
X213450000Y-96230000D03*
X215990000Y-98770000D03*
X215990000Y-96230000D03*
X218530000Y-98770000D03*
X218530000Y-96230000D03*
X221070000Y-98770000D03*
X221070000Y-96230000D03*
X223610000Y-98770000D03*
X223610000Y-96230000D03*
X226150000Y-98770000D03*
X226150000Y-96230000D03*
X228690000Y-98770000D03*
X228690000Y-96230000D03*
X231230000Y-98770000D03*
X231230000Y-96230000D03*
X233770000Y-98770000D03*
X233770000Y-96230000D03*
X236310000Y-98770000D03*
X236310000Y-96230000D03*
X238850000Y-98770000D03*
X238850000Y-96230000D03*
X241390000Y-98770000D03*
X241390000Y-96230000D03*
X243930000Y-98770000D03*
X243930000Y-96230000D03*
X246470000Y-98770000D03*
X246470000Y-96230000D03*
X249010000Y-98770000D03*
X249010000Y-96230000D03*
X251550000Y-98770000D03*
X251550000Y-96230000D03*
X254090000Y-98770000D03*
X254090000Y-96230000D03*
X256630000Y-98770000D03*
X256630000Y-96230000D03*
D15*
X162471500Y-123520500D03*
X170091500Y-105740500D03*
X162471500Y-120980500D03*
X170091500Y-108280500D03*
X162471500Y-118440500D03*
X170091500Y-110820500D03*
X162471500Y-115900500D03*
X170091500Y-113360500D03*
X162471500Y-113360500D03*
X170091500Y-115900500D03*
X162471500Y-110820500D03*
X170091500Y-118440500D03*
X162471500Y-108280500D03*
X170091500Y-120980500D03*
X162471500Y-105740500D03*
D16*
X170091500Y-123520500D03*
D15*
X194539000Y-125108000D03*
D17*
X194539000Y-137808000D03*
D15*
X190729000Y-125108000D03*
D17*
X190729000Y-137808000D03*
D12*
X176251000Y-121298000D03*
X183871000Y-118758000D03*
X176251000Y-106058000D03*
X183871000Y-106058000D03*
X199492000Y-138189000D03*
X207112000Y-135649000D03*
X199492000Y-122949000D03*
X207112000Y-122949000D03*
X221971000Y-138316000D03*
X229591000Y-135776000D03*
X221971000Y-123076000D03*
X229591000Y-123076000D03*
X210795000Y-138189000D03*
X218415000Y-135649000D03*
X210795000Y-122949000D03*
X218415000Y-122949000D03*
X233020000Y-104153000D03*
X225400000Y-106693000D03*
X233020000Y-119393000D03*
X225400000Y-119393000D03*
X255753000Y-103772000D03*
X248133000Y-106312000D03*
X255753000Y-119012000D03*
X248133000Y-119012000D03*
X188189000Y-121298000D03*
X195809000Y-118758000D03*
X188189000Y-106058000D03*
X195809000Y-106058000D03*
X233183000Y-138257000D03*
X240803000Y-135717000D03*
X233183000Y-123017000D03*
X240803000Y-123017000D03*
X244323000Y-138316000D03*
X251943000Y-135776000D03*
X244323000Y-123076000D03*
X251943000Y-123076000D03*
X214478000Y-119393000D03*
X222098000Y-116853000D03*
X214478000Y-104153000D03*
X222098000Y-104153000D03*
X236703000Y-119393000D03*
X244323000Y-116853000D03*
X236703000Y-104153000D03*
X244323000Y-104153000D03*
X203302000Y-119393000D03*
X210922000Y-116853000D03*
X203302000Y-104153000D03*
X210922000Y-104153000D03*
X162027000Y-128791000D03*
X164567000Y-136411000D03*
X177267000Y-128791000D03*
X177267000Y-136411000D03*
D10*
X157593000Y-145555000D03*
X161093000Y-145555000D03*
X164593000Y-145555000D03*
X168093000Y-145555000D03*
X171593000Y-145555000D03*
X175093000Y-145555000D03*
X178593000Y-145555000D03*
X182093000Y-145555000D03*
X185593000Y-145555000D03*
X189093000Y-145555000D03*
X192593000Y-145555000D03*
D11*
X196093000Y-145555000D03*
D10*
X209678000Y-145682000D03*
X213178000Y-145682000D03*
X216678000Y-145682000D03*
X220178000Y-145682000D03*
X223678000Y-145682000D03*
X227178000Y-145682000D03*
X230678000Y-145682000D03*
X234178000Y-145682000D03*
X237678000Y-145682000D03*
D11*
X241178000Y-145682000D03*
D10*
X154915000Y-106181000D03*
X154915000Y-109681000D03*
X154915000Y-113181000D03*
X154915000Y-116681000D03*
X154915000Y-120181000D03*
X154915000Y-123681000D03*
X154915000Y-127181000D03*
X154915000Y-130681000D03*
X154915000Y-134181000D03*
D11*
X154915000Y-137681000D03*
D15*
X186665000Y-125108000D03*
D17*
X186665000Y-137808000D03*
D15*
X182855000Y-125108000D03*
D17*
X182855000Y-137808000D03*
D18*
X255895000Y-145301000D03*
X252395000Y-145301000D03*
D19*
X248895000Y-145301000D03*
D20*
X261500000Y-146500000D03*
X203500000Y-146500000D03*
X261500000Y-97500000D03*
X203500000Y-97500000D03*
M02*
