G04 #@! TF.GenerationSoftware,KiCad,Pcbnew,(5.1.5)-3*
G04 #@! TF.CreationDate,2020-02-21T15:06:44+08:00*
G04 #@! TF.ProjectId,Test,54657374-2e6b-4696-9361-645f70636258,rev?*
G04 #@! TF.SameCoordinates,Original*
G04 #@! TF.FileFunction,Copper,L1,Top*
G04 #@! TF.FilePolarity,Positive*
%FSLAX46Y46*%
G04 Gerber Fmt 4.6, Leading zero omitted, Abs format (unit mm)*
G04 Created by KiCad (PCBNEW (5.1.5)-3) date 2020-02-21 15:06:44*
%MOMM*%
%LPD*%
G04 APERTURE LIST*
%ADD10C,2.600000*%
%ADD11R,2.600000X2.600000*%
%ADD12C,3.000000*%
%ADD13R,1.700000X1.700000*%
%ADD14O,1.700000X1.700000*%
%ADD15O,1.600000X1.600000*%
%ADD16R,1.600000X1.600000*%
%ADD17C,1.600000*%
%ADD18C,2.300000*%
%ADD19R,2.300000X2.300000*%
%ADD20C,1.000000*%
%ADD21C,0.900000*%
%ADD22C,0.500000*%
%ADD23C,0.200000*%
G04 APERTURE END LIST*
D10*
X194812000Y-98311000D03*
X191312000Y-98311000D03*
X187812000Y-98311000D03*
X184312000Y-98311000D03*
X180812000Y-98311000D03*
X177312000Y-98311000D03*
X173812000Y-98311000D03*
X170312000Y-98311000D03*
X166812000Y-98311000D03*
X163312000Y-98311000D03*
X159812000Y-98311000D03*
D11*
X156312000Y-98311000D03*
D12*
X262865000Y-123076000D03*
X255245000Y-125616000D03*
X262865000Y-138316000D03*
X255245000Y-138316000D03*
D13*
X208370000Y-98770000D03*
D14*
X208370000Y-96230000D03*
X210910000Y-98770000D03*
X210910000Y-96230000D03*
X213450000Y-98770000D03*
X213450000Y-96230000D03*
X215990000Y-98770000D03*
X215990000Y-96230000D03*
X218530000Y-98770000D03*
X218530000Y-96230000D03*
X221070000Y-98770000D03*
X221070000Y-96230000D03*
X223610000Y-98770000D03*
X223610000Y-96230000D03*
X226150000Y-98770000D03*
X226150000Y-96230000D03*
X228690000Y-98770000D03*
X228690000Y-96230000D03*
X231230000Y-98770000D03*
X231230000Y-96230000D03*
X233770000Y-98770000D03*
X233770000Y-96230000D03*
X236310000Y-98770000D03*
X236310000Y-96230000D03*
X238850000Y-98770000D03*
X238850000Y-96230000D03*
X241390000Y-98770000D03*
X241390000Y-96230000D03*
X243930000Y-98770000D03*
X243930000Y-96230000D03*
X246470000Y-98770000D03*
X246470000Y-96230000D03*
X249010000Y-98770000D03*
X249010000Y-96230000D03*
X251550000Y-98770000D03*
X251550000Y-96230000D03*
X254090000Y-98770000D03*
X254090000Y-96230000D03*
X256630000Y-98770000D03*
X256630000Y-96230000D03*
D15*
X162471500Y-123520500D03*
X170091500Y-105740500D03*
X162471500Y-120980500D03*
X170091500Y-108280500D03*
X162471500Y-118440500D03*
X170091500Y-110820500D03*
X162471500Y-115900500D03*
X170091500Y-113360500D03*
X162471500Y-113360500D03*
X170091500Y-115900500D03*
X162471500Y-110820500D03*
X170091500Y-118440500D03*
X162471500Y-108280500D03*
X170091500Y-120980500D03*
X162471500Y-105740500D03*
D16*
X170091500Y-123520500D03*
D15*
X194539000Y-125108000D03*
D17*
X194539000Y-137808000D03*
D15*
X190729000Y-125108000D03*
D17*
X190729000Y-137808000D03*
D12*
X176251000Y-121298000D03*
X183871000Y-118758000D03*
X176251000Y-106058000D03*
X183871000Y-106058000D03*
X199492000Y-138189000D03*
X207112000Y-135649000D03*
X199492000Y-122949000D03*
X207112000Y-122949000D03*
X221971000Y-138316000D03*
X229591000Y-135776000D03*
X221971000Y-123076000D03*
X229591000Y-123076000D03*
X210795000Y-138189000D03*
X218415000Y-135649000D03*
X210795000Y-122949000D03*
X218415000Y-122949000D03*
X233020000Y-104153000D03*
X225400000Y-106693000D03*
X233020000Y-119393000D03*
X225400000Y-119393000D03*
X255753000Y-103772000D03*
X248133000Y-106312000D03*
X255753000Y-119012000D03*
X248133000Y-119012000D03*
X188189000Y-121298000D03*
X195809000Y-118758000D03*
X188189000Y-106058000D03*
X195809000Y-106058000D03*
X233183000Y-138257000D03*
X240803000Y-135717000D03*
X233183000Y-123017000D03*
X240803000Y-123017000D03*
X244323000Y-138316000D03*
X251943000Y-135776000D03*
X244323000Y-123076000D03*
X251943000Y-123076000D03*
X214478000Y-119393000D03*
X222098000Y-116853000D03*
X214478000Y-104153000D03*
X222098000Y-104153000D03*
X236703000Y-119393000D03*
X244323000Y-116853000D03*
X236703000Y-104153000D03*
X244323000Y-104153000D03*
X203302000Y-119393000D03*
X210922000Y-116853000D03*
X203302000Y-104153000D03*
X210922000Y-104153000D03*
X162027000Y-128791000D03*
X164567000Y-136411000D03*
X177267000Y-128791000D03*
X177267000Y-136411000D03*
D10*
X157593000Y-145555000D03*
X161093000Y-145555000D03*
X164593000Y-145555000D03*
X168093000Y-145555000D03*
X171593000Y-145555000D03*
X175093000Y-145555000D03*
X178593000Y-145555000D03*
X182093000Y-145555000D03*
X185593000Y-145555000D03*
X189093000Y-145555000D03*
X192593000Y-145555000D03*
D11*
X196093000Y-145555000D03*
D10*
X209678000Y-145682000D03*
X213178000Y-145682000D03*
X216678000Y-145682000D03*
X220178000Y-145682000D03*
X223678000Y-145682000D03*
X227178000Y-145682000D03*
X230678000Y-145682000D03*
X234178000Y-145682000D03*
X237678000Y-145682000D03*
D11*
X241178000Y-145682000D03*
D10*
X154915000Y-106181000D03*
X154915000Y-109681000D03*
X154915000Y-113181000D03*
X154915000Y-116681000D03*
X154915000Y-120181000D03*
X154915000Y-123681000D03*
X154915000Y-127181000D03*
X154915000Y-130681000D03*
X154915000Y-134181000D03*
D11*
X154915000Y-137681000D03*
D15*
X186665000Y-125108000D03*
D17*
X186665000Y-137808000D03*
D15*
X182855000Y-125108000D03*
D17*
X182855000Y-137808000D03*
D18*
X255895000Y-145301000D03*
X252395000Y-145301000D03*
D19*
X248895000Y-145301000D03*
D20*
X166472000Y-121679000D03*
D21*
X178918000Y-109106000D03*
X181458000Y-101740000D03*
X228067000Y-110630000D03*
X188755001Y-110180001D03*
X229337000Y-111900000D03*
X190221000Y-111519000D03*
X230607000Y-113297000D03*
X190983000Y-112916000D03*
X251689000Y-105423000D03*
X205715000Y-132093000D03*
X194031000Y-131966000D03*
D20*
X199492000Y-103264000D03*
X246545500Y-132664500D03*
X251244500Y-132728000D03*
D21*
X171171000Y-138951000D03*
X233020000Y-111646000D03*
X239497000Y-116853000D03*
X214478000Y-131839000D03*
D22*
X162471500Y-120980500D02*
X162471500Y-123520500D01*
X162471500Y-123520500D02*
X164630500Y-123520500D01*
X164630500Y-123520500D02*
X166472000Y-121679000D01*
X166472000Y-121679000D02*
X166472000Y-121679000D01*
X212210001Y-94929999D02*
X211759999Y-95380001D01*
X211759999Y-95380001D02*
X210910000Y-96230000D01*
X258801000Y-96476998D02*
X257254001Y-94929999D01*
X258801000Y-98565000D02*
X258801000Y-96476998D01*
X262145010Y-101909010D02*
X258801000Y-98565000D01*
X248198010Y-132535990D02*
X248641000Y-132093000D01*
X248895000Y-143651000D02*
X248198010Y-142954010D01*
X248198010Y-142954010D02*
X248198010Y-132535990D01*
X248895000Y-145301000D02*
X248895000Y-143651000D01*
X248641000Y-132093000D02*
X248641000Y-130442000D01*
X254202963Y-127648000D02*
X256099002Y-127648000D01*
X248641000Y-130442000D02*
X249845990Y-129237010D01*
X262145010Y-118662519D02*
X262145010Y-101909010D01*
X257195001Y-123612528D02*
X262145010Y-118662519D01*
X249845990Y-129237010D02*
X252613953Y-129237010D01*
X252613953Y-129237010D02*
X254202963Y-127648000D01*
X257195001Y-126552001D02*
X257195001Y-123612528D01*
X257254001Y-94929999D02*
X212210001Y-94929999D01*
X256099002Y-127648000D02*
X257195001Y-126552001D01*
X163602870Y-118440500D02*
X163793370Y-118631000D01*
X162471500Y-118440500D02*
X163602870Y-118440500D01*
X163793370Y-118631000D02*
X166345000Y-118631000D01*
X166345000Y-118631000D02*
X168250000Y-120536000D01*
X168250000Y-120536000D02*
X168250000Y-124600000D01*
X172441000Y-128791000D02*
X177267000Y-128791000D01*
X168250000Y-124600000D02*
X172441000Y-128791000D01*
X177267000Y-128791000D02*
X177267000Y-128664000D01*
X214478000Y-104153000D02*
X211995041Y-101670041D01*
X205784959Y-101670041D02*
X203302000Y-104153000D01*
X211995041Y-101670041D02*
X205784959Y-101670041D01*
X196093000Y-143755000D02*
X196093000Y-145555000D01*
X184105001Y-138408001D02*
X184755001Y-139058001D01*
X184105001Y-137207999D02*
X184105001Y-138408001D01*
X199492000Y-122949000D02*
X194031000Y-128410000D01*
X184755001Y-139058001D02*
X191396001Y-139058001D01*
X194031000Y-128410000D02*
X184140830Y-128410000D01*
X181881010Y-130669820D02*
X181881010Y-134984008D01*
X184140830Y-128410000D02*
X181881010Y-130669820D01*
X191396001Y-139058001D02*
X196093000Y-143755000D01*
X181881010Y-134984008D02*
X184105001Y-137207999D01*
D23*
X261595000Y-117869000D02*
X261595000Y-103460302D01*
X251943000Y-123076000D02*
X256388000Y-123076000D01*
X256388000Y-123076000D02*
X261595000Y-117869000D01*
X261595000Y-103460302D02*
X258194849Y-100060151D01*
X244779999Y-97920001D02*
X243930000Y-98770000D01*
X257182001Y-97619999D02*
X245080001Y-97619999D01*
X258194849Y-98632847D02*
X257182001Y-97619999D01*
X245080001Y-97619999D02*
X244779999Y-97920001D01*
X258194849Y-100060151D02*
X258194849Y-98632847D01*
X227200001Y-121193001D02*
X225400000Y-119393000D01*
X237567001Y-121193001D02*
X227200001Y-121193001D01*
X237948001Y-120812001D02*
X237567001Y-121193001D01*
X251661003Y-118147999D02*
X248997001Y-120812001D01*
X255240001Y-99920001D02*
X256727001Y-99920001D01*
X254090000Y-98770000D02*
X255240001Y-99920001D01*
X257780001Y-100211001D02*
X260579000Y-103010000D01*
X260217003Y-117211999D02*
X254888999Y-117211999D01*
X257018001Y-100211001D02*
X257780001Y-100211001D01*
X260579000Y-103010000D02*
X260579000Y-116850002D01*
X248997001Y-120812001D02*
X237948001Y-120812001D01*
X256727001Y-99920001D02*
X257018001Y-100211001D01*
X253952999Y-118147999D02*
X251661003Y-118147999D01*
X260579000Y-116850002D02*
X260217003Y-117211999D01*
X254888999Y-117211999D02*
X253952999Y-118147999D01*
X181458000Y-100597000D02*
X181458000Y-101740000D01*
X181458000Y-101740000D02*
X181458000Y-101740000D01*
X180442000Y-133236000D02*
X177267000Y-136411000D01*
X180442000Y-121171000D02*
X180442000Y-133236000D01*
X181734989Y-100320011D02*
X181458000Y-100597000D01*
X211899989Y-100320011D02*
X181734989Y-100320011D01*
X213450000Y-98770000D02*
X211899989Y-100320011D01*
X180442000Y-121171000D02*
X180442000Y-110630000D01*
X180442000Y-110630000D02*
X178918000Y-109106000D01*
X178918000Y-109106000D02*
X178918000Y-109106000D01*
X181458000Y-101740000D02*
X181458000Y-101740000D01*
X214039979Y-100720021D02*
X200511979Y-100720021D01*
X215990000Y-98770000D02*
X214039979Y-100720021D01*
X186157000Y-100724000D02*
X183871000Y-103010000D01*
X183871000Y-103010000D02*
X183871000Y-106058000D01*
X200511979Y-100720021D02*
X200508000Y-100724000D01*
X200508000Y-100724000D02*
X186157000Y-100724000D01*
X223610000Y-98770000D02*
X225437000Y-100597000D01*
X240767000Y-100597000D02*
X244323000Y-104153000D01*
X225437000Y-100597000D02*
X240767000Y-100597000D01*
X226150000Y-98770000D02*
X226150000Y-98807000D01*
X222098000Y-102031680D02*
X222098000Y-104153000D01*
X222220001Y-101909679D02*
X222098000Y-102031680D01*
X222220001Y-98457997D02*
X222220001Y-101909679D01*
X223057999Y-97619999D02*
X222220001Y-98457997D01*
X224962999Y-97619999D02*
X223057999Y-97619999D01*
X226150000Y-98807000D02*
X224962999Y-97619999D01*
X227617001Y-110180001D02*
X188755001Y-110180001D01*
X228067000Y-110630000D02*
X227617001Y-110180001D01*
X188755001Y-110180001D02*
X188755001Y-110180001D01*
X228700604Y-111900000D02*
X228319604Y-111519000D01*
X229337000Y-111900000D02*
X228700604Y-111900000D01*
X228319604Y-111519000D02*
X190221000Y-111519000D01*
X190221000Y-111519000D02*
X190221000Y-111519000D01*
X230607000Y-113297000D02*
X191364000Y-113297000D01*
X191364000Y-113297000D02*
X190983000Y-112916000D01*
X190983000Y-112916000D02*
X190983000Y-112916000D01*
X238297999Y-99920001D02*
X246186001Y-99920001D01*
X237699999Y-99322001D02*
X238297999Y-99920001D01*
X236310000Y-96230000D02*
X237699999Y-97619999D01*
X237699999Y-97619999D02*
X237699999Y-99322001D01*
X246186001Y-99920001D02*
X251689000Y-105423000D01*
X251689000Y-105423000D02*
X251689000Y-105423000D01*
X205588000Y-131966000D02*
X205715000Y-132093000D01*
X194031000Y-131966000D02*
X205588000Y-131966000D01*
X197308999Y-107557999D02*
X195809000Y-106058000D01*
X243163312Y-119053011D02*
X233003312Y-108893011D01*
X245352690Y-119053011D02*
X243163312Y-119053011D01*
X257553001Y-106852700D02*
X245352690Y-119053011D01*
X257553001Y-102907999D02*
X257553001Y-106852700D01*
X233003312Y-108893011D02*
X198644011Y-108893011D01*
X256617001Y-101971999D02*
X257553001Y-102907999D01*
X252211999Y-101971999D02*
X256617001Y-101971999D01*
X198644011Y-108893011D02*
X197308999Y-107557999D01*
X249010000Y-98770000D02*
X252211999Y-101971999D01*
X256302011Y-116811989D02*
X250333011Y-116811989D01*
X256642000Y-116472000D02*
X256302011Y-116811989D01*
X259436000Y-116472000D02*
X256642000Y-116472000D01*
X250333011Y-116811989D02*
X249933001Y-117211999D01*
X259436000Y-102432698D02*
X259436000Y-116472000D01*
X251550000Y-98770000D02*
X253100011Y-100320011D01*
X249933001Y-117211999D02*
X248133000Y-119012000D01*
X256852312Y-100611011D02*
X257614313Y-100611011D01*
X256561312Y-100320011D02*
X256852312Y-100611011D01*
X253100011Y-100320011D02*
X256561312Y-100320011D01*
X257614313Y-100611011D02*
X259436000Y-102432698D01*
D22*
X182093000Y-145555000D02*
X179426000Y-142888000D01*
X174260000Y-142888000D02*
X171593000Y-145555000D01*
X179426000Y-142888000D02*
X174260000Y-142888000D01*
X154915000Y-106181000D02*
X158975000Y-106181000D01*
X158975000Y-106181000D02*
X161011000Y-108217000D01*
X161011000Y-123910002D02*
X161954998Y-124854000D01*
X161011000Y-108217000D02*
X161011000Y-123910002D01*
X167514038Y-124854000D02*
X173229038Y-130569000D01*
X161954998Y-124854000D02*
X167514038Y-124854000D01*
X173229038Y-141857038D02*
X174260000Y-142888000D01*
X173229038Y-130569000D02*
X173229038Y-141857038D01*
D23*
X182055001Y-126288999D02*
X180842010Y-127501990D01*
X182855000Y-125108000D02*
X182055001Y-125907999D01*
X182055001Y-125907999D02*
X182055001Y-126288999D01*
X180842010Y-127501990D02*
X180842010Y-143161010D01*
X183199010Y-143161010D02*
X185593000Y-145555000D01*
X180842010Y-143161010D02*
X183199010Y-143161010D01*
X186665000Y-125108000D02*
X181331000Y-130442000D01*
X181331000Y-130442000D02*
X181331000Y-142380000D01*
X189418000Y-142380000D02*
X192593000Y-145555000D01*
X181331000Y-142380000D02*
X189418000Y-142380000D01*
D22*
X209233320Y-135649000D02*
X218415000Y-135649000D01*
X207112000Y-135649000D02*
X209233320Y-135649000D01*
X229464000Y-135649000D02*
X229591000Y-135776000D01*
X218415000Y-135649000D02*
X229464000Y-135649000D01*
X240744000Y-135776000D02*
X240803000Y-135717000D01*
X229591000Y-135776000D02*
X240744000Y-135776000D01*
X251884000Y-135717000D02*
X251943000Y-135776000D01*
X248133000Y-113043000D02*
X244323000Y-116853000D01*
X248133000Y-106312000D02*
X248133000Y-113043000D01*
X225781000Y-106312000D02*
X225400000Y-106693000D01*
X248133000Y-106312000D02*
X225781000Y-106312000D01*
X229591000Y-133654680D02*
X229591000Y-135776000D01*
X229591000Y-126467320D02*
X229591000Y-133654680D01*
X222098000Y-118974320D02*
X229591000Y-126467320D01*
X222098000Y-116853000D02*
X222098000Y-118974320D01*
X219976680Y-116853000D02*
X222098000Y-116853000D01*
X214131998Y-116853000D02*
X219976680Y-116853000D01*
X212181997Y-118803001D02*
X214131998Y-116853000D01*
X208072039Y-118803001D02*
X212181997Y-118803001D01*
X197308999Y-117258001D02*
X206527039Y-117258001D01*
X195809000Y-118758000D02*
X197308999Y-117258001D01*
X225400000Y-106693000D02*
X223278680Y-106693000D01*
X223278680Y-106693000D02*
X199492000Y-106693000D01*
X199492000Y-106693000D02*
X199492000Y-103264000D01*
X199492000Y-103264000D02*
X199492000Y-103264000D01*
X208001000Y-118758000D02*
X208072039Y-118803001D01*
X206527039Y-117258001D02*
X208001000Y-118758000D01*
X210922000Y-116980000D02*
X207239000Y-116980000D01*
X210922000Y-116853000D02*
X210922000Y-116980000D01*
X207239000Y-116980000D02*
X206096000Y-115837000D01*
X171611999Y-99610999D02*
X170312000Y-98311000D01*
X172062001Y-100061001D02*
X171611999Y-99610999D01*
X189905965Y-115837000D02*
X174129966Y-100061001D01*
X174129966Y-100061001D02*
X172062001Y-100061001D01*
X206096000Y-115837000D02*
X189905965Y-115837000D01*
X154512000Y-98311000D02*
X156312000Y-98311000D01*
X164567000Y-136411000D02*
X159995000Y-140983000D01*
X159995000Y-140983000D02*
X153391000Y-140983000D01*
X153391000Y-140983000D02*
X152248000Y-139840000D01*
X152248000Y-100575000D02*
X154512000Y-98311000D01*
X183871000Y-118758000D02*
X182371001Y-117258001D01*
X182371001Y-109291999D02*
X174565002Y-101486000D01*
X182371001Y-117258001D02*
X182371001Y-109291999D01*
X166487000Y-101486000D02*
X163312000Y-98311000D01*
X174565002Y-101486000D02*
X166487000Y-101486000D01*
X159995000Y-140983000D02*
X158915500Y-140983000D01*
X152248000Y-146698000D02*
X152248000Y-139840000D01*
X247245510Y-138441490D02*
X247245510Y-141743490D01*
X252324000Y-128537000D02*
X248133000Y-128537000D01*
X247498000Y-138189000D02*
X247245510Y-138441490D01*
X247498000Y-129172000D02*
X247498000Y-138189000D01*
X154534000Y-148984000D02*
X152248000Y-146698000D01*
X255245000Y-125616000D02*
X252324000Y-128537000D01*
X248133000Y-128537000D02*
X247498000Y-129172000D01*
X247245510Y-141743490D02*
X246545500Y-142443500D01*
X246545500Y-142443500D02*
X246545500Y-145745500D01*
X246545500Y-145745500D02*
X243307000Y-148984000D01*
X243307000Y-148984000D02*
X154534000Y-148984000D01*
X152248000Y-101867000D02*
X150970010Y-103144990D01*
X152248000Y-100575000D02*
X152248000Y-101867000D01*
X150970010Y-103144990D02*
X150970010Y-138435010D01*
X152248000Y-139713000D02*
X152248000Y-139840000D01*
X150970010Y-138435010D02*
X152248000Y-139713000D01*
D23*
X218878001Y-144382001D02*
X220178000Y-145682000D01*
X214184999Y-139688999D02*
X218878001Y-144382001D01*
X212294999Y-139688999D02*
X214184999Y-139688999D01*
X210795000Y-138189000D02*
X212294999Y-139688999D01*
D22*
X153164999Y-114930999D02*
X153615001Y-115381001D01*
X153164999Y-105340999D02*
X153164999Y-114930999D01*
X154225998Y-104280000D02*
X153164999Y-105340999D01*
X171679000Y-104280000D02*
X154225998Y-104280000D01*
X172375992Y-104976992D02*
X171679000Y-104280000D01*
X172375992Y-107617954D02*
X172375992Y-104976992D01*
X174050991Y-109292953D02*
X172375992Y-107617954D01*
X182300965Y-120073967D02*
X181585000Y-119358002D01*
X181585000Y-119358002D02*
X181585000Y-109614000D01*
X182300965Y-120708001D02*
X182300965Y-120073967D01*
X175451011Y-108762989D02*
X175451011Y-117612009D01*
X184807001Y-120708001D02*
X182300965Y-120708001D01*
X153615001Y-115381001D02*
X154915000Y-116681000D01*
X174209003Y-123248001D02*
X174209003Y-120245966D01*
X186167003Y-119347999D02*
X184807001Y-120708001D01*
X201180680Y-119393000D02*
X199865679Y-120708001D01*
X178201001Y-122234001D02*
X177187001Y-123248001D01*
X181585000Y-109614000D02*
X179680000Y-107709000D01*
X175451011Y-117612009D02*
X178201001Y-120361999D01*
X199865679Y-120708001D02*
X190485003Y-120708001D01*
X174209003Y-120245966D02*
X174050991Y-120087954D01*
X190485003Y-120708001D02*
X189125001Y-119347999D01*
X189125001Y-119347999D02*
X186167003Y-119347999D01*
X175500952Y-108713048D02*
X175451011Y-108762989D01*
X203302000Y-119393000D02*
X201180680Y-119393000D01*
X179680000Y-107709000D02*
X177486002Y-107709000D01*
X177486002Y-107709000D02*
X176481954Y-108713048D01*
X176481954Y-108713048D02*
X175500952Y-108713048D01*
X178201001Y-120361999D02*
X178201001Y-122234001D01*
X177187001Y-123248001D02*
X174209003Y-123248001D01*
X174050991Y-120087954D02*
X174050991Y-109292953D01*
X156214999Y-124980999D02*
X156756499Y-124980999D01*
X154915000Y-123681000D02*
X156214999Y-124980999D01*
X158616499Y-126840999D02*
X164140999Y-126840999D01*
X156756499Y-124980999D02*
X158616499Y-126840999D01*
X164140999Y-126840999D02*
X167107000Y-129807000D01*
X167107000Y-129807000D02*
X167107000Y-140221000D01*
X167107000Y-140221000D02*
X163995500Y-143332500D01*
X163995500Y-143332500D02*
X156375500Y-143332500D01*
X156375500Y-143332500D02*
X154851500Y-144856500D01*
X154851500Y-144856500D02*
X154851500Y-146825000D01*
X154851500Y-146825000D02*
X155550000Y-147523500D01*
X155550000Y-147523500D02*
X197904500Y-147523500D01*
X197904500Y-147523500D02*
X201206500Y-144221500D01*
X201206500Y-144221500D02*
X206286500Y-144221500D01*
X206286500Y-144221500D02*
X206286500Y-145237500D01*
X206286500Y-145237500D02*
X208481001Y-147432001D01*
X242838001Y-147432001D02*
X244323000Y-145947002D01*
X208481001Y-147432001D02*
X242838001Y-147432001D01*
X244323000Y-145947002D02*
X244323000Y-141491000D01*
X244323000Y-141491000D02*
X246545500Y-139268500D01*
X246545500Y-139268500D02*
X246545500Y-132664500D01*
X246545500Y-132664500D02*
X246545500Y-132664500D01*
X251244500Y-132728000D02*
X251244500Y-132728000D01*
X262865000Y-130188000D02*
X262865000Y-123076000D01*
X251244500Y-132728000D02*
X260325000Y-132728000D01*
X260325000Y-132728000D02*
X262865000Y-130188000D01*
X151670020Y-127436020D02*
X153615001Y-129381001D01*
X153615001Y-129381001D02*
X154915000Y-130681000D01*
X151670020Y-104095980D02*
X151670020Y-127436020D01*
X172060000Y-103518000D02*
X152248000Y-103518000D01*
X174751001Y-119798001D02*
X174751001Y-109003001D01*
X173076000Y-107328000D02*
X173076000Y-104534000D01*
X176251000Y-121298000D02*
X174751001Y-119798001D01*
X174751001Y-109003001D02*
X173076000Y-107328000D01*
X173076000Y-104534000D02*
X172060000Y-103518000D01*
X152248000Y-103518000D02*
X151670020Y-104095980D01*
X162027000Y-132369000D02*
X162027000Y-130912320D01*
X156715000Y-137681000D02*
X162027000Y-132369000D01*
X162027000Y-130912320D02*
X162027000Y-128791000D01*
X154915000Y-137681000D02*
X156715000Y-137681000D01*
D23*
X156753477Y-109681000D02*
X160122000Y-113049523D01*
X154915000Y-109681000D02*
X156753477Y-109681000D01*
X162614157Y-126290989D02*
X164368820Y-126290989D01*
X164368820Y-126290989D02*
X171171000Y-133093169D01*
X160122000Y-113049523D02*
X160122000Y-123798832D01*
X160122000Y-123798832D02*
X162614157Y-126290989D01*
X171171000Y-133093169D02*
X171171000Y-138951000D01*
X171171000Y-138951000D02*
X171171000Y-138951000D01*
X238227000Y-116853000D02*
X233020000Y-111646000D01*
X239497000Y-116853000D02*
X238227000Y-116853000D01*
X200514170Y-108493001D02*
X198691999Y-106670830D01*
X255753000Y-105893320D02*
X255753000Y-103772000D01*
X246228000Y-115725830D02*
X255753000Y-106200830D01*
X200514170Y-108493001D02*
X233169001Y-108493001D01*
X233169001Y-108493001D02*
X243329001Y-118653001D01*
X255753000Y-106200830D02*
X255753000Y-105893320D01*
X243329001Y-118653001D02*
X245187001Y-118653001D01*
X245187001Y-118653001D02*
X246228000Y-117612002D01*
X246228000Y-117612002D02*
X246228000Y-115725830D01*
X199828008Y-101743990D02*
X198603000Y-102968998D01*
X200053709Y-101743990D02*
X199828008Y-101743990D01*
X200677668Y-101120031D02*
X200053709Y-101743990D01*
X198603000Y-106581831D02*
X200514170Y-108493001D01*
X217881971Y-101120031D02*
X200677668Y-101120031D01*
X202498001Y-99920001D02*
X211701999Y-99920001D01*
X199288999Y-96710999D02*
X202498001Y-99920001D01*
X212299999Y-98217999D02*
X212897999Y-97619999D01*
X185912001Y-96710999D02*
X199288999Y-96710999D01*
X219680001Y-99322001D02*
X217881971Y-101120031D01*
X211701999Y-99920001D02*
X212299999Y-99322001D01*
X219919999Y-99322001D02*
X219680001Y-99322001D01*
X184312000Y-98311000D02*
X185912001Y-96710999D01*
X212299999Y-99322001D02*
X212299999Y-98217999D01*
X212897999Y-97619999D02*
X219321999Y-97619999D01*
X198603000Y-102968998D02*
X198603000Y-106581831D01*
X219321999Y-97619999D02*
X219919999Y-98217999D01*
X219919999Y-98217999D02*
X219919999Y-99322001D01*
X235203001Y-117893001D02*
X236703000Y-119393000D01*
X190201997Y-115052999D02*
X232362999Y-115052999D01*
X232362999Y-115052999D02*
X235203001Y-117893001D01*
X177312000Y-102163002D02*
X190201997Y-115052999D01*
X177312000Y-98311000D02*
X177312000Y-102163002D01*
X207184999Y-139688999D02*
X211878001Y-144382001D01*
X200991999Y-139688999D02*
X207184999Y-139688999D01*
X211878001Y-144382001D02*
X213178000Y-145682000D01*
X199492000Y-138189000D02*
X200991999Y-139688999D01*
X221971000Y-140475000D02*
X227178000Y-145682000D01*
X221971000Y-138316000D02*
X221971000Y-140475000D01*
X233183000Y-144687000D02*
X234178000Y-145682000D01*
X233183000Y-138257000D02*
X233183000Y-144687000D01*
X241178000Y-141461000D02*
X244323000Y-138316000D01*
X241178000Y-145682000D02*
X241178000Y-141461000D01*
X214478000Y-119393000D02*
X214478000Y-121514320D01*
X214478000Y-121514320D02*
X214478000Y-126886000D01*
X214478000Y-126886000D02*
X214478000Y-131839000D01*
X214478000Y-131839000D02*
X214478000Y-131839000D01*
M02*
